<svg xmlns="http://www.w3.org/2000/svg" xmlns:xlink="http://www.w3.org/1999/xlink" width="500" zoomAndPan="magnify" viewBox="0 0 375 374.999991" height="500" preserveAspectRatio="xMidYMid meet" version="1.0"><defs><g/><clipPath id="e8b69b720e"><path d="M 134 171 L 272.828125 171 L 272.828125 207 L 134 207 Z M 134 171 " clip-rule="nonzero"/></clipPath><clipPath id="fa67abca36"><path d="M 108 202 L 272.828125 202 L 272.828125 236.671875 L 108 236.671875 Z M 108 202 " clip-rule="nonzero"/></clipPath></defs><rect x="-37.5" width="450" fill="#ffffff" y="-37.499999" height="449.999989" fill-opacity="1"/><rect x="-37.5" width="450" fill="#5271ff" y="-37.499999" height="449.999989" fill-opacity="1"/><path fill="#e6e6e6" d="M 140.363281 197.011719 C 141.601562 194.289062 142.011719 190.917969 141.78125 187.914062 C 141.527344 184.628906 140.59375 181.441406 139.464844 178.335938 L 221.761719 176.285156 L 219.976562 201.363281 L 140.367188 197.011719 Z M 140.363281 197.011719 " fill-opacity="1" fill-rule="nonzero"/><path fill="#e6e6e6" d="M 267.53125 230.230469 C 266.089844 227.257812 265.378906 223.925781 265.542969 220.621094 C 265.746094 216.566406 267.265625 212.597656 269.769531 209.40625 L 162.074219 206.339844 L 162.074219 233.976562 L 267.53125 230.226562 Z M 267.53125 230.230469 " fill-opacity="1" fill-rule="nonzero"/><path fill="#b3b3b3" d="M 186.449219 224.789062 C 192.015625 224.789062 197.589844 224.71875 203.128906 224.578125 L 203.050781 221.511719 C 190.449219 221.835938 177.6875 221.792969 165.128906 221.375 C 164.097656 221.339844 163.113281 221.277344 162.132812 221.210938 L 162.078125 221.210938 L 162.078125 224.28125 C 163.046875 224.34375 164.015625 224.40625 165.03125 224.441406 C 172.128906 224.671875 179.296875 224.789062 186.457031 224.789062 Z M 186.449219 224.789062 " fill-opacity="1" fill-rule="nonzero"/><path fill="#b3b3b3" d="M 207.980469 224.46875 L 208.0625 221.40625 L 217.257812 221.660156 L 217.171875 224.722656 Z M 207.980469 224.46875 " fill-opacity="1" fill-rule="nonzero"/><path fill="#b3b3b3" d="M 177.886719 218.324219 L 177.898438 215.261719 L 226.078125 215.441406 L 226.066406 218.507812 Z M 177.886719 218.324219 " fill-opacity="1" fill-rule="nonzero"/><path fill="#b3b3b3" d="M 237.660156 222.910156 L 237.628906 225.976562 C 238.210938 225.980469 238.800781 225.984375 239.390625 225.984375 C 244.457031 225.984375 249.878906 225.785156 255.136719 225.59375 C 258.644531 225.464844 262.183594 225.332031 265.667969 225.257812 C 265.742188 225.257812 265.8125 225.25 265.886719 225.246094 C 265.695312 224.242188 265.597656 223.21875 265.5625 222.191406 C 262.070312 222.269531 258.535156 222.398438 255.023438 222.527344 C 248.914062 222.753906 243.148438 222.96875 237.65625 222.910156 Z M 237.660156 222.910156 " fill-opacity="1" fill-rule="nonzero"/><path fill="#b3b3b3" d="M 249.710938 214.136719 L 249.765625 217.199219 L 266.144531 216.90625 C 266.40625 215.859375 266.757812 214.84375 267.1875 213.851562 C 266.96875 213.851562 266.753906 213.828125 266.535156 213.835938 Z M 249.710938 214.136719 " fill-opacity="1" fill-rule="nonzero"/><path fill="#b3b3b3" d="M 159.167969 192.871094 L 158.960938 189.8125 C 153.21875 190.207031 147.429688 190.4375 141.804688 190.503906 C 141.761719 191.53125 141.617188 192.554688 141.410156 193.566406 C 141.511719 193.566406 141.613281 193.566406 141.710938 193.566406 C 147.476562 193.503906 153.351562 193.269531 159.167969 192.867188 Z M 159.167969 192.871094 " fill-opacity="1" fill-rule="nonzero"/><path fill="#b3b3b3" d="M 163.183594 189.570312 L 163.230469 192.636719 L 169.175781 192.550781 L 169.054688 189.484375 Z M 163.183594 189.570312 " fill-opacity="1" fill-rule="nonzero"/><path fill="#b3b3b3" d="M 217.617188 184.730469 C 218.644531 184.835938 219.6875 184.9375 220.832031 184.957031 L 220.886719 181.894531 C 219.832031 181.875 218.875 181.777344 217.925781 181.679688 C 216.671875 181.554688 215.382812 181.417969 213.910156 181.46875 L 152.046875 183.195312 L 152.128906 186.261719 L 213.992188 184.53125 C 215.265625 184.484375 216.402344 184.609375 217.617188 184.730469 Z M 217.617188 184.730469 " fill-opacity="1" fill-rule="nonzero"/><path fill="#b3b3b3" d="M 214.332031 188.65625 C 203.769531 189.125 193.042969 189.152344 182.449219 188.75 L 182.335938 191.816406 C 187.292969 192.003906 192.28125 192.097656 197.265625 192.097656 C 203.019531 192.097656 208.765625 191.972656 214.464844 191.722656 C 216.425781 191.636719 218.382812 191.554688 220.34375 191.527344 L 220.296875 188.460938 C 218.308594 188.492188 216.316406 188.570312 214.332031 188.65625 Z M 214.332031 188.65625 " fill-opacity="1" fill-rule="nonzero"/><path fill="#e6e6e6" d="M 243.464844 165.652344 C 240.488281 159.707031 240.851562 155.304688 243.136719 149.058594 L 225.304688 145.867188 L 113.863281 146.53125 L 116.089844 169.125 L 241.578125 169.125 L 243.464844 165.65625 Z M 243.464844 165.652344 " fill-opacity="1" fill-rule="nonzero"/><path fill="#b3b3b3" d="M 119.964844 160.898438 C 131.933594 160.273438 144.089844 160.054688 156.066406 160.234375 L 156.117188 157.167969 C 144.0625 156.984375 131.847656 157.210938 119.886719 157.835938 C 119.117188 157.835938 118.25 157.855469 117.382812 157.878906 C 116.550781 157.902344 115.71875 157.921875 114.980469 157.921875 L 115.285156 160.980469 C 115.972656 160.976562 116.707031 160.960938 117.460938 160.941406 C 118.300781 160.917969 119.144531 160.898438 119.96875 160.894531 Z M 119.964844 160.898438 " fill-opacity="1" fill-rule="nonzero"/><path fill="#b3b3b3" d="M 152.230469 152.066406 L 152.324219 155.132812 C 156.519531 155 160.714844 154.910156 164.910156 154.859375 L 164.875 151.792969 C 160.660156 151.84375 156.441406 151.933594 152.226562 152.066406 Z M 152.230469 152.066406 " fill-opacity="1" fill-rule="nonzero"/><path fill="#b3b3b3" d="M 225.34375 152.597656 L 225.253906 155.660156 L 241.410156 156.148438 C 241.496094 155.160156 241.648438 154.152344 241.894531 153.113281 C 241.800781 153.113281 241.714844 153.089844 241.621094 153.085938 Z M 225.34375 152.597656 " fill-opacity="1" fill-rule="nonzero"/><path fill="#b3b3b3" d="M 215.660156 158.824219 L 215.667969 161.890625 C 223.457031 161.863281 232.632812 161.875 241.601562 162.082031 C 241.742188 162.082031 241.878906 162.082031 242.019531 162.082031 L 242.050781 162.082031 C 241.738281 161.039062 241.527344 160.015625 241.425781 159.011719 C 232.5 158.804688 223.394531 158.796875 215.664062 158.820312 Z M 215.660156 158.824219 " fill-opacity="1" fill-rule="nonzero"/><g clip-path="url(#e8b69b720e)"><path fill="#785349" d="M 136.074219 202.390625 C 136.265625 200.597656 136.363281 198.789062 136.363281 196.988281 C 161.078125 197.164062 188.136719 196.207031 212.851562 196.382812 C 215.222656 190.207031 215.148438 183.988281 212.132812 178.105469 C 186.246094 178.734375 160.050781 178.875 134.160156 178.207031 C 134.210938 176.515625 134.085938 173.542969 134.136719 171.855469 L 198.800781 172.015625 C 223.242188 172.101562 246.953125 172.15625 265.613281 171.984375 C 268.238281 171.957031 270.535156 173.808594 271 176.398438 C 271.714844 180.332031 271.976562 184.363281 272.042969 188.355469 C 272.121094 193.457031 270.839844 198.769531 267.625 202.683594 L 191.96875 206.894531 L 136.078125 202.390625 Z M 136.074219 202.390625 " fill-opacity="1" fill-rule="nonzero"/></g><path fill="#e73844" d="M 204.070312 165.589844 C 214.867188 165.632812 236.800781 165.664062 247.59375 165.652344 C 247.457031 170.828125 247.453125 166.90625 247.3125 172.085938 L 180.460938 171.949219 C 153.726562 171.855469 127.410156 171.78125 107.101562 171.988281 C 101.804688 163.128906 102.140625 151.625 107.34375 142.710938 C 129.042969 142.363281 148.933594 142.363281 168.941406 142.566406 L 210.167969 143.210938 C 221.800781 143.4375 233.863281 143.695312 246.679688 143.960938 C 246.523438 145.519531 246.363281 147.621094 246.207031 149.183594 C 233.765625 148.667969 221.214844 148.332031 208.625 148.152344 L 172.199219 148.023438 C 155.144531 148.132812 138.117188 148.457031 121.285156 148.921875 C 119.6875 154.144531 119.570312 160.253906 120.351562 165.660156 C 135.898438 165.453125 159.097656 165.285156 174.78125 165.304688 L 204.070312 165.59375 Z M 204.070312 165.589844 " fill-opacity="1" fill-rule="nonzero"/><path fill="#4c4c4c" d="M 172.195312 144.824219 L 172.199219 163.652344 C 176.03125 165.625 179.851562 169.695312 181.316406 173.753906 C 187.4375 173.960938 192.039062 173.550781 198.160156 173.753906 C 199.734375 168.441406 203.511719 164.882812 208.871094 163.488281 C 209.082031 157.253906 208.558594 150.519531 208.582031 144.15625 " fill-opacity="1" fill-rule="nonzero"/><path fill="#fedd5e" d="M 206.777344 144.597656 C 195.703125 145.5625 184.554688 145.710938 173.460938 145.039062 C 170.1875 144.84375 167.683594 142.050781 167.691406 138.765625 C 167.707031 133.984375 167.367188 129.285156 166.894531 124.386719 C 166.304688 118.332031 163.695312 112.75 160.019531 107.902344 C 150.859375 95.8125 151.257812 78.039062 160.054688 65.96875 C 167.460938 55.804688 180.53125 50.097656 193.003906 51.574219 C 202.855469 52.742188 212.285156 56.339844 218.917969 63.730469 C 225.554688 71.117188 228.785156 81.457031 227.550781 91.316406 C 226.402344 100.46875 221.71875 108.71875 217.8125 117.074219 C 214.695312 123.761719 212.234375 131.191406 212.390625 138.507812 C 212.457031 141.664062 209.914062 144.320312 206.777344 144.59375 Z M 206.777344 144.597656 " fill-opacity="1" fill-rule="nonzero"/><path fill="#eebd39" d="M 242.5625 172.09375 C 240.125 172.09375 237.640625 172.097656 235.125 172.097656 C 239.265625 182.867188 239.414062 192.546875 234.265625 202.875 C 233.976562 203.457031 233.601562 204.027344 233.246094 204.597656 L 243.015625 204.058594 C 243.183594 203.660156 243.375 203.277344 243.515625 202.851562 C 247.296875 191.535156 247.40625 183 242.5625 172.09375 Z M 242.5625 172.09375 " fill-opacity="1" fill-rule="nonzero"/><g clip-path="url(#fa67abca36)"><path fill="#a6d305" d="M 272.875 209.394531 C 272.957031 207.832031 272.796875 204.210938 272.875 202.648438 C 219.667969 203.222656 166.714844 202.578125 113.503906 202.234375 C 107.449219 210.007812 106.214844 226.902344 111.777344 235.039062 C 165.371094 236.160156 219.175781 236.515625 272.777344 236.128906 C 272.777344 234.449219 272.898438 231.90625 272.898438 230.230469 C 237.8125 230.441406 201.9375 230.84375 166.878906 230.207031 C 164.089844 223.816406 164.445312 215.191406 167.066406 208.734375 C 202.765625 209.207031 237.164062 209.585938 272.875 209.394531 Z M 272.875 209.394531 " fill-opacity="1" fill-rule="nonzero"/></g><path fill="#006bdb" d="M 213.929688 93.519531 C 212.296875 92.117188 210.632812 90.722656 208.949219 89.339844 C 210.886719 87.832031 212.800781 86.273438 214.664062 84.609375 C 216.105469 83.320312 217.59375 81.898438 218.550781 79.933594 C 219.695312 77.582031 219.730469 74.808594 218.632812 72.875 C 217.558594 70.984375 215.132812 69.015625 209.660156 70.339844 C 207.152344 70.949219 204.628906 71.746094 202.070312 72.726562 C 201.90625 72.191406 201.78125 71.65625 201.597656 71.128906 C 201.332031 70.371094 201.066406 69.613281 200.769531 68.894531 C 200.410156 68.011719 199.8125 67.335938 199.199219 66.652344 L 196.996094 68.78125 C 197.375 69.214844 197.773438 69.65625 197.941406 70.058594 C 198.214844 70.730469 198.460938 71.433594 198.707031 72.140625 C 198.914062 72.722656 199.054688 73.320312 199.226562 73.910156 C 197.390625 74.707031 195.53125 75.5625 193.625 76.5625 C 193.128906 76.824219 192.644531 77.117188 192.15625 77.394531 C 189.632812 75.949219 187.011719 74.683594 184.328125 73.554688 C 184.492188 73.113281 184.609375 72.65625 184.796875 72.21875 C 185.75 70.0625 188.519531 65.078125 193.730469 65.90625 C 194.089844 65.957031 194.429688 66.046875 194.746094 66.167969 C 195.105469 66.3125 195.507812 66.617188 195.9375 66.9375 C 196.261719 67.183594 196.589844 67.429688 196.925781 67.636719 L 198.535156 65.03125 C 198.277344 64.871094 198.027344 64.683594 197.777344 64.488281 C 197.230469 64.074219 196.609375 63.605469 195.859375 63.316406 C 195.332031 63.109375 194.765625 62.957031 194.179688 62.871094 C 189.09375 62.109375 184.566406 65.136719 181.996094 70.980469 C 181.792969 71.445312 181.667969 71.925781 181.492188 72.394531 C 179.859375 71.804688 178.207031 71.269531 176.511719 70.832031 C 173.917969 70.164062 170.578125 69.585938 167.699219 71.050781 C 164.320312 72.777344 163.152344 75.804688 164.414062 79.570312 C 164.6875 80.386719 165.117188 81.121094 165.496094 81.769531 L 166.945312 81.214844 L 168.136719 80.21875 C 167.816406 79.671875 167.488281 79.109375 167.3125 78.597656 C 166.53125 76.257812 167.0625 74.820312 169.089844 73.785156 C 171.042969 72.78125 173.550781 73.226562 175.746094 73.800781 C 177.363281 74.222656 178.945312 74.734375 180.507812 75.300781 C 179.578125 78.765625 179.269531 82.324219 179.300781 85.871094 C 177.878906 86.875 176.4375 87.871094 174.980469 88.835938 C 173.550781 87.445312 172.058594 85.882812 170.75 84.261719 C 170.390625 83.820312 169.933594 83.234375 169.648438 82.652344 L 166.910156 84.011719 C 167.335938 84.871094 167.917969 85.628906 168.378906 86.199219 C 169.609375 87.722656 170.988281 89.195312 172.335938 90.527344 C 171.347656 91.132812 170.351562 91.710938 169.347656 92.253906 C 165.199219 94.492188 163.101562 99.085938 164.25 103.425781 C 165.269531 107.261719 168.492188 109.617188 172.691406 109.617188 C 172.785156 109.617188 172.878906 109.617188 172.976562 109.617188 C 176.351562 109.53125 179.46875 107.910156 182.074219 106.453125 C 182.472656 108.117188 183 109.800781 183.859375 111.351562 C 185.585938 114.464844 188.386719 116.484375 191.359375 116.75 C 191.582031 116.773438 191.804688 116.78125 192.03125 116.78125 C 192.59375 116.78125 193.160156 116.714844 193.730469 116.59375 C 194.570312 116.410156 195.582031 116.027344 196.109375 115.816406 L 194.976562 112.972656 C 194.417969 113.191406 193.664062 113.46875 193.082031 113.597656 C 192.59375 113.699219 192.109375 113.734375 191.632812 113.695312 C 189.324219 113.488281 187.488281 111.578125 186.535156 109.859375 C 185.699219 108.355469 185.222656 106.636719 184.851562 104.890625 C 186.113281 104.175781 187.371094 103.453125 188.621094 102.730469 C 191.9375 104.496094 195.390625 105.953125 198.9375 107.089844 C 198.640625 108.0625 198.289062 109.003906 197.789062 109.867188 L 197.59375 110.191406 C 197.195312 110.808594 196.71875 111.425781 196.261719 112.015625 L 196.039062 112.308594 L 198.464844 114.175781 L 198.6875 113.886719 C 199.191406 113.226562 199.71875 112.542969 200.167969 111.84375 L 200.425781 111.417969 C 201.070312 110.308594 201.507812 109.132812 201.871094 107.925781 C 203.597656 108.386719 205.339844 108.796875 207.097656 109.097656 C 208.304688 109.304688 209.449219 109.410156 210.519531 109.410156 C 214.746094 109.410156 217.816406 107.824219 218.996094 104.921875 C 220.410156 101.449219 218.703125 97.613281 213.929688 93.523438 Z M 210.382812 73.316406 C 211.34375 73.082031 212.199219 72.964844 212.933594 72.964844 C 214.414062 72.964844 215.433594 73.4375 215.964844 74.382812 C 216.570312 75.453125 216.503906 77.144531 215.796875 78.59375 C 215.085938 80.058594 213.890625 81.191406 212.625 82.324219 C 210.632812 84.101562 208.585938 85.757812 206.503906 87.363281 C 205.699219 86.714844 204.878906 86.082031 204.058594 85.453125 C 203.949219 82.167969 203.589844 78.902344 202.867188 75.691406 C 205.410156 74.707031 207.902344 73.917969 210.382812 73.316406 Z M 182.378906 87.457031 C 182.496094 87.371094 182.625 87.285156 182.742188 87.199219 C 185.777344 85.050781 188.886719 82.851562 192.097656 80.9375 C 195.175781 82.789062 198.152344 84.832031 201.042969 87.007812 C 201.058594 88.476562 201.015625 89.949219 200.945312 91.421875 C 196.9375 94.179688 192.808594 96.730469 188.59375 99.195312 C 186.757812 98.152344 184.957031 97.03125 183.226562 95.789062 C 182.816406 93.074219 182.484375 90.277344 182.371094 87.453125 Z M 199.996094 76.910156 C 200.421875 78.933594 200.730469 80.984375 200.886719 83.058594 C 199.023438 81.710938 197.109375 80.441406 195.164062 79.21875 C 196.804688 78.359375 198.40625 77.609375 199.996094 76.910156 Z M 189.078125 79.210938 C 186.785156 80.648438 184.554688 82.175781 182.371094 83.714844 C 182.464844 81.261719 182.792969 78.835938 183.386719 76.472656 C 185.320312 77.296875 187.222656 78.203125 189.074219 79.210938 Z M 179.453125 89.507812 C 179.542969 90.730469 179.652344 91.941406 179.796875 93.144531 C 179.164062 92.625 178.300781 91.894531 177.289062 90.984375 C 178.015625 90.496094 178.738281 90.003906 179.453125 89.507812 Z M 181.246094 103.410156 C 178.695312 104.84375 175.804688 106.472656 172.90625 106.542969 C 169.910156 106.675781 167.878906 105.152344 167.214844 102.636719 C 166.574219 100.214844 167.421875 96.773438 170.804688 94.949219 C 172.101562 94.253906 173.371094 93.484375 174.628906 92.703125 C 176.105469 94.050781 177.390625 95.136719 178.160156 95.765625 C 178.894531 96.367188 179.652344 96.925781 180.410156 97.488281 C 180.722656 99.421875 181.058594 101.320312 181.386719 103.117188 L 181.425781 103.308594 L 181.25 103.40625 Z M 184.242188 101.710938 C 184.132812 101.128906 184.027344 100.539062 183.921875 99.941406 C 184.464844 100.289062 185.007812 100.632812 185.558594 100.964844 C 185.121094 101.214844 184.683594 101.460938 184.246094 101.710938 Z M 191.777344 100.875 C 194.796875 99.082031 197.769531 97.226562 200.6875 95.285156 C 200.507812 97.355469 200.28125 99.417969 200.027344 101.453125 C 199.910156 102.359375 199.785156 103.234375 199.640625 104.082031 C 196.953125 103.210938 194.332031 102.132812 191.777344 100.875 Z M 216.164062 103.761719 C 215.105469 106.367188 211.058594 106.664062 207.617188 106.070312 C 205.925781 105.78125 204.25 105.382812 202.585938 104.941406 C 202.769531 103.921875 202.925781 102.890625 203.0625 101.839844 C 203.425781 98.960938 203.730469 96.023438 203.921875 93.074219 C 204.765625 92.476562 205.613281 91.871094 206.449219 91.25 C 208.308594 92.773438 210.140625 94.304688 211.941406 95.847656 C 215.601562 98.980469 217.023438 101.648438 216.164062 103.761719 Z M 216.164062 103.761719 " fill-opacity="1" fill-rule="nonzero"/><path fill="#a6d305" d="M 188.210938 87.378906 C 187.265625 88.59375 187.183594 90.417969 188.027344 91.710938 C 188.867188 93.003906 190.5625 93.667969 192.058594 93.289062 C 193.550781 92.910156 194.726562 91.519531 194.851562 89.980469 C 195.148438 86.351562 190.453125 84.507812 188.210938 87.378906 Z M 188.210938 87.378906 " fill-opacity="1" fill-rule="nonzero"/><path fill="#ec8329" d="M 194.738281 111.273438 C 193.484375 112.128906 192.859375 113.882812 193.476562 115.273438 C 194.816406 118.28125 199.5625 117.273438 200.480469 114.449219 C 201.554688 111.144531 197.082031 109.679688 194.738281 111.273438 Z M 194.738281 111.273438 " fill-opacity="1" fill-rule="nonzero"/><path fill="#e73844" d="M 163.25 81.09375 C 162.5625 82.539062 163.242188 84.414062 164.578125 85.300781 C 165.914062 86.183594 167.722656 86.152344 169.167969 85.457031 C 171.46875 84.351562 172.90625 80.785156 170.222656 79.242188 C 168.277344 78.125 164.226562 79.046875 163.253906 81.097656 Z M 163.25 81.09375 " fill-opacity="1" fill-rule="nonzero"/><path fill="#8adef9" d="M 193.753906 66.871094 C 193.382812 68.285156 194.0625 69.972656 195.410156 70.53125 C 198.179688 71.671875 201.699219 68.019531 200.523438 65.25 C 199.179688 62.082031 194.4375 64.253906 193.753906 66.871094 Z M 193.753906 66.871094 " fill-opacity="1" fill-rule="nonzero"/><path fill="#686868" d="M 208.882812 161.960938 L 208.855469 161.960938 L 204.167969 162.003906 C 192.894531 162.109375 182.246094 162.203125 172.21875 162.121094 L 172.203125 162.121094 L 172.203125 163.652344 C 173.019531 164.074219 173.832031 164.605469 174.625 165.195312 C 183.980469 165.253906 193.808594 165.167969 204.199219 165.070312 L 204.960938 165.0625 C 206.148438 164.394531 207.449219 163.859375 208.871094 163.492188 C 208.886719 162.992188 208.878906 162.46875 208.886719 161.960938 Z M 208.882812 161.960938 " fill-opacity="1" fill-rule="nonzero"/><path fill="#686868" d="M 208.773438 153.167969 C 208.742188 152.144531 208.710938 151.121094 208.679688 150.09375 C 196.574219 149.375 182.921875 149.214844 172.265625 149.6875 C 172.242188 149.6875 172.21875 149.6875 172.199219 149.6875 L 172.199219 152.75 C 172.21875 152.75 172.238281 152.75 172.261719 152.75 C 182.972656 152.285156 196.53125 152.441406 208.773438 153.167969 Z M 208.773438 153.167969 " fill-opacity="1" fill-rule="nonzero"/><path fill="#686868" d="M 208.875 159.234375 L 208.90625 159.234375 C 208.898438 158.222656 208.875 157.195312 208.851562 156.167969 C 197.683594 155.863281 183.460938 155.585938 172.199219 156.074219 L 172.199219 159.144531 L 172.265625 159.144531 C 183.476562 158.644531 197.722656 158.929688 208.878906 159.234375 Z M 208.875 159.234375 " fill-opacity="1" fill-rule="nonzero"/><g fill="#ffffff" fill-opacity="1"><g transform="translate(107.743234, 294.484728)"><g><path d="M 28.328125 -11.796875 C 28.328125 -10.796875 28.328125 -9.765625 28.328125 -8.703125 C 28.328125 -7.648438 28.335938 -6.597656 28.359375 -5.546875 C 28.378906 -4.503906 28.425781 -3.507812 28.5 -2.5625 C 28.570312 -1.625 28.675781 -0.769531 28.8125 0 L 25.015625 0 C 24.898438 -0.96875 24.816406 -1.929688 24.765625 -2.890625 C 24.710938 -3.859375 24.671875 -4.726562 24.640625 -5.5 C 24.472656 -4.78125 24.109375 -4.054688 23.546875 -3.328125 C 22.992188 -2.597656 22.265625 -1.929688 21.359375 -1.328125 C 20.460938 -0.734375 19.414062 -0.253906 18.21875 0.109375 C 17.03125 0.472656 15.734375 0.65625 14.328125 0.65625 C 12.367188 0.65625 10.566406 0.382812 8.921875 -0.15625 C 7.273438 -0.695312 5.84375 -1.46875 4.625 -2.46875 C 3.414062 -3.476562 2.476562 -4.6875 1.8125 -6.09375 C 1.144531 -7.5 0.8125 -9.066406 0.8125 -10.796875 C 0.8125 -12.703125 1.160156 -14.390625 1.859375 -15.859375 C 2.554688 -17.335938 3.539062 -18.578125 4.8125 -19.578125 C 6.082031 -20.585938 7.585938 -21.347656 9.328125 -21.859375 C 11.066406 -22.378906 12.976562 -22.640625 15.0625 -22.640625 C 17.238281 -22.640625 19.15625 -22.316406 20.8125 -21.671875 C 22.46875 -21.035156 23.859375 -20.160156 24.984375 -19.046875 C 26.117188 -17.929688 26.972656 -16.65625 27.546875 -15.21875 L 22.34375 -13.859375 C 22.269531 -13.835938 22.203125 -13.828125 22.140625 -13.828125 C 21.847656 -14.742188 21.363281 -15.515625 20.6875 -16.140625 C 20.007812 -16.773438 19.179688 -17.257812 18.203125 -17.59375 C 17.234375 -17.925781 16.140625 -18.09375 14.921875 -18.09375 C 13.773438 -18.09375 12.703125 -17.9375 11.703125 -17.625 C 10.710938 -17.320312 9.84375 -16.867188 9.09375 -16.265625 C 8.351562 -15.671875 7.773438 -14.9375 7.359375 -14.0625 C 6.941406 -13.1875 6.734375 -12.179688 6.734375 -11.046875 C 6.734375 -9.859375 6.941406 -8.8125 7.359375 -7.90625 C 7.785156 -7 8.375 -6.238281 9.125 -5.625 C 9.875 -5.007812 10.765625 -4.546875 11.796875 -4.234375 C 12.828125 -3.921875 13.945312 -3.765625 15.15625 -3.765625 C 16.09375 -3.765625 16.988281 -3.851562 17.84375 -4.03125 C 18.707031 -4.207031 19.484375 -4.476562 20.171875 -4.84375 C 20.859375 -5.21875 21.421875 -5.691406 21.859375 -6.265625 C 22.296875 -6.835938 22.5625 -7.515625 22.65625 -8.296875 L 15.5625 -8.296875 L 15.5625 -11.796875 Z M 28.328125 -11.796875 "/></g></g></g><g fill="#ffffff" fill-opacity="1"><g transform="translate(137.254603, 294.484728)"><g><path d="M 12.1875 0.53125 C 10.414062 0.53125 8.820312 0.34375 7.40625 -0.03125 C 5.988281 -0.414062 4.773438 -0.96875 3.765625 -1.6875 C 2.765625 -2.414062 2 -3.289062 1.46875 -4.3125 C 0.9375 -5.34375 0.671875 -6.507812 0.671875 -7.8125 C 0.671875 -9.082031 0.914062 -10.238281 1.40625 -11.28125 C 1.90625 -12.320312 2.625 -13.21875 3.5625 -13.96875 C 4.507812 -14.726562 5.664062 -15.304688 7.03125 -15.703125 C 8.394531 -16.109375 9.941406 -16.3125 11.671875 -16.3125 C 13.242188 -16.3125 14.660156 -16.078125 15.921875 -15.609375 C 17.191406 -15.140625 18.273438 -14.488281 19.171875 -13.65625 C 20.066406 -12.820312 20.753906 -11.851562 21.234375 -10.75 C 21.710938 -9.65625 21.953125 -8.476562 21.953125 -7.21875 C 21.953125 -7.132812 21.945312 -7.046875 21.9375 -6.953125 C 21.9375 -6.867188 21.9375 -6.785156 21.9375 -6.703125 L 5.671875 -6.703125 C 5.742188 -5.941406 6.066406 -5.28125 6.640625 -4.71875 C 7.210938 -4.15625 7.972656 -3.722656 8.921875 -3.421875 C 9.867188 -3.117188 10.9375 -2.96875 12.125 -2.96875 C 13.34375 -2.96875 14.445312 -3.160156 15.4375 -3.546875 C 16.425781 -3.929688 17.203125 -4.585938 17.765625 -5.515625 C 17.796875 -5.515625 17.828125 -5.507812 17.859375 -5.5 C 17.890625 -5.5 17.914062 -5.5 17.9375 -5.5 L 21.546875 -3.703125 C 20.734375 -2.679688 19.832031 -1.859375 18.84375 -1.234375 C 17.863281 -0.609375 16.816406 -0.160156 15.703125 0.109375 C 14.585938 0.390625 13.414062 0.53125 12.1875 0.53125 Z M 5.734375 -9.65625 L 16.71875 -9.65625 C 16.675781 -10.257812 16.453125 -10.816406 16.046875 -11.328125 C 15.648438 -11.835938 15.070312 -12.242188 14.3125 -12.546875 C 13.5625 -12.859375 12.625 -13.015625 11.5 -13.015625 C 10.414062 -13.015625 9.457031 -12.867188 8.625 -12.578125 C 7.800781 -12.296875 7.140625 -11.90625 6.640625 -11.40625 C 6.140625 -10.90625 5.835938 -10.320312 5.734375 -9.65625 Z M 5.734375 -9.65625 "/></g></g></g><g fill="#ffffff" fill-opacity="1"><g transform="translate(160.044195, 294.484728)"><g><path d="M 2.71875 0 L 2.71875 -15.75 L 6.515625 -15.75 L 7.359375 -11.171875 C 7.890625 -12.328125 8.601562 -13.285156 9.5 -14.046875 C 10.394531 -14.816406 11.390625 -15.382812 12.484375 -15.75 C 13.585938 -16.125 14.710938 -16.3125 15.859375 -16.3125 C 17.765625 -16.3125 19.304688 -15.941406 20.484375 -15.203125 C 21.660156 -14.472656 22.515625 -13.410156 23.046875 -12.015625 C 23.585938 -10.628906 23.859375 -8.945312 23.859375 -6.96875 L 23.859375 0 L 18.359375 0 L 18.359375 -6.296875 C 18.359375 -7.140625 18.285156 -7.925781 18.140625 -8.65625 C 18.003906 -9.382812 17.769531 -10.019531 17.4375 -10.5625 C 17.113281 -11.101562 16.65625 -11.523438 16.0625 -11.828125 C 15.476562 -12.128906 14.726562 -12.28125 13.8125 -12.28125 C 13.15625 -12.28125 12.5 -12.144531 11.84375 -11.875 C 11.1875 -11.601562 10.582031 -11.207031 10.03125 -10.6875 C 9.476562 -10.175781 9.039062 -9.550781 8.71875 -8.8125 C 8.394531 -8.082031 8.234375 -7.257812 8.234375 -6.34375 L 8.234375 0 Z M 2.71875 0 "/></g></g></g><g fill="#ffffff" fill-opacity="1"><g transform="translate(186.470913, 294.484728)"><g><path d="M 12.1875 0.53125 C 10.414062 0.53125 8.820312 0.34375 7.40625 -0.03125 C 5.988281 -0.414062 4.773438 -0.96875 3.765625 -1.6875 C 2.765625 -2.414062 2 -3.289062 1.46875 -4.3125 C 0.9375 -5.34375 0.671875 -6.507812 0.671875 -7.8125 C 0.671875 -9.082031 0.914062 -10.238281 1.40625 -11.28125 C 1.90625 -12.320312 2.625 -13.21875 3.5625 -13.96875 C 4.507812 -14.726562 5.664062 -15.304688 7.03125 -15.703125 C 8.394531 -16.109375 9.941406 -16.3125 11.671875 -16.3125 C 13.242188 -16.3125 14.660156 -16.078125 15.921875 -15.609375 C 17.191406 -15.140625 18.273438 -14.488281 19.171875 -13.65625 C 20.066406 -12.820312 20.753906 -11.851562 21.234375 -10.75 C 21.710938 -9.65625 21.953125 -8.476562 21.953125 -7.21875 C 21.953125 -7.132812 21.945312 -7.046875 21.9375 -6.953125 C 21.9375 -6.867188 21.9375 -6.785156 21.9375 -6.703125 L 5.671875 -6.703125 C 5.742188 -5.941406 6.066406 -5.28125 6.640625 -4.71875 C 7.210938 -4.15625 7.972656 -3.722656 8.921875 -3.421875 C 9.867188 -3.117188 10.9375 -2.96875 12.125 -2.96875 C 13.34375 -2.96875 14.445312 -3.160156 15.4375 -3.546875 C 16.425781 -3.929688 17.203125 -4.585938 17.765625 -5.515625 C 17.796875 -5.515625 17.828125 -5.507812 17.859375 -5.5 C 17.890625 -5.5 17.914062 -5.5 17.9375 -5.5 L 21.546875 -3.703125 C 20.734375 -2.679688 19.832031 -1.859375 18.84375 -1.234375 C 17.863281 -0.609375 16.816406 -0.160156 15.703125 0.109375 C 14.585938 0.390625 13.414062 0.53125 12.1875 0.53125 Z M 5.734375 -9.65625 L 16.71875 -9.65625 C 16.675781 -10.257812 16.453125 -10.816406 16.046875 -11.328125 C 15.648438 -11.835938 15.070312 -12.242188 14.3125 -12.546875 C 13.5625 -12.859375 12.625 -13.015625 11.5 -13.015625 C 10.414062 -13.015625 9.457031 -12.867188 8.625 -12.578125 C 7.800781 -12.296875 7.140625 -11.90625 6.640625 -11.40625 C 6.140625 -10.90625 5.835938 -10.320312 5.734375 -9.65625 Z M 5.734375 -9.65625 "/></g></g></g><g fill="#ffffff" fill-opacity="1"><g transform="translate(209.260504, 294.484728)"><g><path d="M 2.71875 0 L 2.71875 -15.75 L 6.625 -15.75 L 7.703125 -11.421875 C 7.910156 -12.128906 8.238281 -12.78125 8.6875 -13.375 C 9.132812 -13.976562 9.664062 -14.5 10.28125 -14.9375 C 10.90625 -15.375 11.582031 -15.710938 12.3125 -15.953125 C 13.039062 -16.191406 13.78125 -16.3125 14.53125 -16.3125 C 15.800781 -16.3125 16.863281 -16.148438 17.71875 -15.828125 C 18.570312 -15.503906 19.253906 -15.054688 19.765625 -14.484375 C 20.285156 -13.921875 20.660156 -13.265625 20.890625 -12.515625 C 21.117188 -11.765625 21.234375 -10.957031 21.234375 -10.09375 C 21.242188 -9.226562 21.171875 -8.34375 21.015625 -7.4375 L 16.84375 -6.96875 C 16.875 -8.175781 16.789062 -9.171875 16.59375 -9.953125 C 16.394531 -10.734375 16.023438 -11.316406 15.484375 -11.703125 C 14.953125 -12.085938 14.1875 -12.28125 13.1875 -12.28125 C 12.382812 -12.28125 11.675781 -12.097656 11.0625 -11.734375 C 10.445312 -11.367188 9.929688 -10.890625 9.515625 -10.296875 C 9.097656 -9.703125 8.78125 -9.0625 8.5625 -8.375 C 8.34375 -7.6875 8.234375 -7.015625 8.234375 -6.359375 L 8.234375 0 Z M 2.71875 0 "/></g></g></g><g fill="#ffffff" fill-opacity="1"><g transform="translate(230.914453, 294.484728)"><g><path d="M 8.34375 0.53125 C 6.050781 0.53125 4.296875 0.101562 3.078125 -0.75 C 1.867188 -1.601562 1.265625 -2.796875 1.265625 -4.328125 C 1.265625 -5.222656 1.519531 -5.976562 2.03125 -6.59375 C 2.550781 -7.207031 3.273438 -7.710938 4.203125 -8.109375 C 5.140625 -8.503906 6.234375 -8.800781 7.484375 -9 C 8.742188 -9.207031 10.125 -9.335938 11.625 -9.390625 C 13.132812 -9.453125 14.707031 -9.457031 16.34375 -9.40625 L 16.34375 -9.65625 C 16.34375 -10.21875 16.191406 -10.734375 15.890625 -11.203125 C 15.585938 -11.671875 15.09375 -12.050781 14.40625 -12.34375 C 13.71875 -12.632812 12.789062 -12.78125 11.625 -12.78125 C 10.9375 -12.78125 10.25 -12.695312 9.5625 -12.53125 C 8.882812 -12.375 8.28125 -12.125 7.75 -11.78125 C 7.21875 -11.445312 6.820312 -11.015625 6.5625 -10.484375 L 2.375 -11.921875 C 2.894531 -12.804688 3.578125 -13.578125 4.421875 -14.234375 C 5.265625 -14.898438 6.328125 -15.410156 7.609375 -15.765625 C 8.890625 -16.128906 10.425781 -16.3125 12.21875 -16.3125 C 15.507812 -16.3125 17.9375 -15.664062 19.5 -14.375 C 21.0625 -13.082031 21.84375 -11.070312 21.84375 -8.34375 L 21.84375 -3.984375 C 21.84375 -3.472656 21.925781 -3.101562 22.09375 -2.875 C 22.257812 -2.644531 22.535156 -2.53125 22.921875 -2.53125 C 23.203125 -2.53125 23.476562 -2.5625 23.75 -2.625 C 24.03125 -2.6875 24.222656 -2.742188 24.328125 -2.796875 L 24.328125 -0.296875 C 24.203125 -0.234375 23.96875 -0.132812 23.625 0 C 23.289062 0.132812 22.882812 0.253906 22.40625 0.359375 C 21.925781 0.472656 21.421875 0.53125 20.890625 0.53125 C 19.648438 0.53125 18.703125 0.296875 18.046875 -0.171875 C 17.390625 -0.648438 17.050781 -1.460938 17.03125 -2.609375 C 17.03125 -2.953125 17.0625 -3.363281 17.125 -3.84375 C 17.1875 -4.332031 17.269531 -4.890625 17.375 -5.515625 C 17.132812 -4.390625 16.71875 -3.4375 16.125 -2.65625 C 15.539062 -1.882812 14.832031 -1.265625 14 -0.796875 C 13.175781 -0.328125 12.28125 0.0078125 11.3125 0.21875 C 10.351562 0.425781 9.363281 0.53125 8.34375 0.53125 Z M 10.140625 -2.453125 C 10.972656 -2.453125 11.757812 -2.585938 12.5 -2.859375 C 13.25 -3.128906 13.910156 -3.484375 14.484375 -3.921875 C 15.054688 -4.367188 15.507812 -4.851562 15.84375 -5.375 C 16.175781 -5.90625 16.34375 -6.429688 16.34375 -6.953125 C 16.132812 -6.960938 15.914062 -6.96875 15.6875 -6.96875 C 15.46875 -6.96875 15.25 -6.972656 15.03125 -6.984375 C 13.84375 -6.984375 12.753906 -6.945312 11.765625 -6.875 C 10.773438 -6.8125 9.921875 -6.691406 9.203125 -6.515625 C 8.492188 -6.335938 7.941406 -6.078125 7.546875 -5.734375 C 7.160156 -5.398438 6.96875 -4.960938 6.96875 -4.421875 C 6.96875 -4.097656 7.0625 -3.785156 7.25 -3.484375 C 7.445312 -3.179688 7.78125 -2.929688 8.25 -2.734375 C 8.71875 -2.546875 9.347656 -2.453125 10.140625 -2.453125 Z M 10.140625 -2.453125 "/></g></g></g><g fill="#ffffff" fill-opacity="1"><g transform="translate(256.082755, 294.484728)"><g><path d="M 2.828125 0 L 2.828125 -22.203125 L 8.3125 -22.203125 L 8.3125 0 Z M 2.828125 0 "/></g></g></g><g fill="#ffffff" fill-opacity="1"><g transform="translate(78.622142, 326.734726)"><g><path d="M 2.78125 0 L 2.78125 -21.984375 L 8.546875 -21.984375 L 8.4375 -12.015625 L 20.5625 -21.984375 L 27.640625 -21.984375 L 17.453125 -13.53125 L 28.34375 0 L 21.640625 0 L 13.296875 -10.3125 L 8.4375 -6.328125 L 8.546875 0 Z M 2.78125 0 "/></g></g></g><g fill="#ffffff" fill-opacity="1"><g transform="translate(107.335493, 326.734726)"><g><path d="M 2.71875 0 L 2.71875 -15.75 L 6.515625 -15.75 L 7.359375 -11.171875 C 7.890625 -12.328125 8.601562 -13.285156 9.5 -14.046875 C 10.394531 -14.816406 11.390625 -15.382812 12.484375 -15.75 C 13.585938 -16.125 14.710938 -16.3125 15.859375 -16.3125 C 17.765625 -16.3125 19.304688 -15.941406 20.484375 -15.203125 C 21.660156 -14.472656 22.515625 -13.410156 23.046875 -12.015625 C 23.585938 -10.628906 23.859375 -8.945312 23.859375 -6.96875 L 23.859375 0 L 18.359375 0 L 18.359375 -6.296875 C 18.359375 -7.140625 18.285156 -7.925781 18.140625 -8.65625 C 18.003906 -9.382812 17.769531 -10.019531 17.4375 -10.5625 C 17.113281 -11.101562 16.65625 -11.523438 16.0625 -11.828125 C 15.476562 -12.128906 14.726562 -12.28125 13.8125 -12.28125 C 13.15625 -12.28125 12.5 -12.144531 11.84375 -11.875 C 11.1875 -11.601562 10.582031 -11.207031 10.03125 -10.6875 C 9.476562 -10.175781 9.039062 -9.550781 8.71875 -8.8125 C 8.394531 -8.082031 8.234375 -7.257812 8.234375 -6.34375 L 8.234375 0 Z M 2.71875 0 "/></g></g></g><g fill="#ffffff" fill-opacity="1"><g transform="translate(133.762211, 326.734726)"><g><path d="M 12.046875 0.53125 C 10.890625 0.53125 9.757812 0.421875 8.65625 0.203125 C 7.550781 -0.00390625 6.515625 -0.328125 5.546875 -0.765625 C 4.585938 -1.210938 3.742188 -1.769531 3.015625 -2.4375 C 2.285156 -3.113281 1.710938 -3.90625 1.296875 -4.8125 C 0.878906 -5.71875 0.671875 -6.742188 0.671875 -7.890625 C 0.671875 -9.035156 0.878906 -10.0625 1.296875 -10.96875 C 1.710938 -11.875 2.285156 -12.660156 3.015625 -13.328125 C 3.753906 -14.003906 4.601562 -14.5625 5.5625 -15 C 6.53125 -15.4375 7.566406 -15.765625 8.671875 -15.984375 C 9.773438 -16.203125 10.898438 -16.3125 12.046875 -16.3125 C 13.191406 -16.3125 14.316406 -16.203125 15.421875 -15.984375 C 16.523438 -15.765625 17.554688 -15.429688 18.515625 -14.984375 C 19.484375 -14.546875 20.335938 -13.992188 21.078125 -13.328125 C 21.816406 -12.660156 22.390625 -11.875 22.796875 -10.96875 C 23.210938 -10.070312 23.421875 -9.054688 23.421875 -7.921875 C 23.421875 -6.773438 23.210938 -5.742188 22.796875 -4.828125 C 22.390625 -3.921875 21.820312 -3.128906 21.09375 -2.453125 C 20.363281 -1.773438 19.515625 -1.21875 18.546875 -0.78125 C 17.585938 -0.34375 16.550781 -0.015625 15.4375 0.203125 C 14.332031 0.421875 13.203125 0.53125 12.046875 0.53125 Z M 12.046875 -3.4375 C 13.097656 -3.4375 14.050781 -3.609375 14.90625 -3.953125 C 15.769531 -4.296875 16.457031 -4.800781 16.96875 -5.46875 C 17.488281 -6.132812 17.75 -6.945312 17.75 -7.90625 C 17.75 -8.851562 17.488281 -9.660156 16.96875 -10.328125 C 16.457031 -10.992188 15.769531 -11.5 14.90625 -11.84375 C 14.050781 -12.1875 13.097656 -12.359375 12.046875 -12.359375 C 10.992188 -12.359375 10.035156 -12.179688 9.171875 -11.828125 C 8.316406 -11.484375 7.632812 -10.976562 7.125 -10.3125 C 6.613281 -9.644531 6.359375 -8.835938 6.359375 -7.890625 C 6.359375 -6.941406 6.613281 -6.132812 7.125 -5.46875 C 7.632812 -4.8125 8.316406 -4.304688 9.171875 -3.953125 C 10.035156 -3.609375 10.992188 -3.4375 12.046875 -3.4375 Z M 12.046875 -3.4375 "/></g></g></g><g fill="#ffffff" fill-opacity="1"><g transform="translate(157.84091, 326.734726)"><g><path d="M 6.640625 0 L 0.15625 -15.75 L 5.984375 -15.75 L 9.46875 -6.078125 L 9.90625 -4.328125 L 10.375 -6.109375 L 13.78125 -14.078125 L 18.9375 -14.078125 L 22.484375 -6.109375 L 22.953125 -4.328125 L 23.390625 -6.0625 L 26.875 -15.75 L 32.25 -15.75 L 25.765625 0 L 20.125 0 L 16.96875 -7.671875 L 16.140625 -10.25 L 15.3125 -7.65625 L 12.28125 0 Z M 6.640625 0 "/></g></g></g><g fill="#ffffff" fill-opacity="1"><g transform="translate(190.237427, 326.734726)"><g><path d="M 2.828125 0 L 2.828125 -22.203125 L 8.3125 -22.203125 L 8.3125 0 Z M 2.828125 0 "/></g></g></g><g fill="#ffffff" fill-opacity="1"><g transform="translate(201.394351, 326.734726)"><g><path d="M 12.1875 0.53125 C 10.414062 0.53125 8.820312 0.34375 7.40625 -0.03125 C 5.988281 -0.414062 4.773438 -0.96875 3.765625 -1.6875 C 2.765625 -2.414062 2 -3.289062 1.46875 -4.3125 C 0.9375 -5.34375 0.671875 -6.507812 0.671875 -7.8125 C 0.671875 -9.082031 0.914062 -10.238281 1.40625 -11.28125 C 1.90625 -12.320312 2.625 -13.21875 3.5625 -13.96875 C 4.507812 -14.726562 5.664062 -15.304688 7.03125 -15.703125 C 8.394531 -16.109375 9.941406 -16.3125 11.671875 -16.3125 C 13.242188 -16.3125 14.660156 -16.078125 15.921875 -15.609375 C 17.191406 -15.140625 18.273438 -14.488281 19.171875 -13.65625 C 20.066406 -12.820312 20.753906 -11.851562 21.234375 -10.75 C 21.710938 -9.65625 21.953125 -8.476562 21.953125 -7.21875 C 21.953125 -7.132812 21.945312 -7.046875 21.9375 -6.953125 C 21.9375 -6.867188 21.9375 -6.785156 21.9375 -6.703125 L 5.671875 -6.703125 C 5.742188 -5.941406 6.066406 -5.28125 6.640625 -4.71875 C 7.210938 -4.15625 7.972656 -3.722656 8.921875 -3.421875 C 9.867188 -3.117188 10.9375 -2.96875 12.125 -2.96875 C 13.34375 -2.96875 14.445312 -3.160156 15.4375 -3.546875 C 16.425781 -3.929688 17.203125 -4.585938 17.765625 -5.515625 C 17.796875 -5.515625 17.828125 -5.507812 17.859375 -5.5 C 17.890625 -5.5 17.914062 -5.5 17.9375 -5.5 L 21.546875 -3.703125 C 20.734375 -2.679688 19.832031 -1.859375 18.84375 -1.234375 C 17.863281 -0.609375 16.816406 -0.160156 15.703125 0.109375 C 14.585938 0.390625 13.414062 0.53125 12.1875 0.53125 Z M 5.734375 -9.65625 L 16.71875 -9.65625 C 16.675781 -10.257812 16.453125 -10.816406 16.046875 -11.328125 C 15.648438 -11.835938 15.070312 -12.242188 14.3125 -12.546875 C 13.5625 -12.859375 12.625 -13.015625 11.5 -13.015625 C 10.414062 -13.015625 9.457031 -12.867188 8.625 -12.578125 C 7.800781 -12.296875 7.140625 -11.90625 6.640625 -11.40625 C 6.140625 -10.90625 5.835938 -10.320312 5.734375 -9.65625 Z M 5.734375 -9.65625 "/></g></g></g><g fill="#ffffff" fill-opacity="1"><g transform="translate(224.183943, 326.734726)"><g><path d="M 9.984375 0.53125 C 8.679688 0.53125 7.460938 0.328125 6.328125 -0.078125 C 5.203125 -0.492188 4.21875 -1.082031 3.375 -1.84375 C 2.53125 -2.601562 1.867188 -3.492188 1.390625 -4.515625 C 0.910156 -5.535156 0.671875 -6.660156 0.671875 -7.890625 C 0.671875 -9.128906 0.910156 -10.257812 1.390625 -11.28125 C 1.867188 -12.3125 2.535156 -13.203125 3.390625 -13.953125 C 4.242188 -14.710938 5.25 -15.296875 6.40625 -15.703125 C 7.570312 -16.109375 8.835938 -16.3125 10.203125 -16.3125 C 11.503906 -16.3125 12.648438 -16.140625 13.640625 -15.796875 C 14.640625 -15.460938 15.472656 -15.023438 16.140625 -14.484375 C 16.816406 -13.953125 17.328125 -13.378906 17.671875 -12.765625 L 17.671875 -22.203125 L 23.15625 -22.203125 L 23.15625 0 L 18.90625 0 L 18.171875 -3.46875 C 17.753906 -2.695312 17.160156 -2.007812 16.390625 -1.40625 C 15.617188 -0.800781 14.691406 -0.328125 13.609375 0.015625 C 12.535156 0.359375 11.328125 0.53125 9.984375 0.53125 Z M 12.015625 -3.4375 C 13.109375 -3.4375 14.078125 -3.617188 14.921875 -3.984375 C 15.773438 -4.359375 16.445312 -4.878906 16.9375 -5.546875 C 17.425781 -6.210938 17.671875 -6.976562 17.671875 -7.84375 C 17.671875 -8.53125 17.519531 -9.148438 17.21875 -9.703125 C 16.925781 -10.253906 16.519531 -10.726562 16 -11.125 C 15.488281 -11.519531 14.894531 -11.820312 14.21875 -12.03125 C 13.539062 -12.25 12.816406 -12.359375 12.046875 -12.359375 C 10.960938 -12.359375 9.988281 -12.175781 9.125 -11.8125 C 8.269531 -11.457031 7.59375 -10.945312 7.09375 -10.28125 C 6.601562 -9.613281 6.359375 -8.820312 6.359375 -7.90625 C 6.359375 -6.9375 6.609375 -6.117188 7.109375 -5.453125 C 7.609375 -4.785156 8.285156 -4.28125 9.140625 -3.9375 C 9.992188 -3.601562 10.953125 -3.4375 12.015625 -3.4375 Z M 12.015625 -3.4375 "/></g></g></g><g fill="#ffffff" fill-opacity="1"><g transform="translate(250.211651, 326.734726)"><g><path d="M 14.59375 -3.71875 C 16.132812 -3.75 17.421875 -3.679688 18.453125 -3.515625 C 19.492188 -3.347656 20.328125 -3.085938 20.953125 -2.734375 C 21.578125 -2.378906 22.023438 -1.9375 22.296875 -1.40625 C 22.578125 -0.875 22.71875 -0.257812 22.71875 0.4375 C 22.71875 1.351562 22.503906 2.140625 22.078125 2.796875 C 21.648438 3.453125 21.066406 3.988281 20.328125 4.40625 C 19.585938 4.832031 18.738281 5.164062 17.78125 5.40625 C 16.832031 5.65625 15.828125 5.832031 14.765625 5.9375 C 13.710938 6.039062 12.660156 6.09375 11.609375 6.09375 C 9.359375 6.09375 7.515625 5.9375 6.078125 5.625 C 4.648438 5.3125 3.597656 4.878906 2.921875 4.328125 C 2.242188 3.785156 1.90625 3.164062 1.90625 2.46875 C 1.90625 2.125 1.992188 1.757812 2.171875 1.375 C 2.347656 0.988281 2.617188 0.628906 2.984375 0.296875 C 3.359375 -0.0351562 3.832031 -0.300781 4.40625 -0.5 C 3.582031 -0.675781 2.945312 -0.921875 2.5 -1.234375 C 2.0625 -1.554688 1.753906 -1.925781 1.578125 -2.34375 C 1.398438 -2.769531 1.3125 -3.21875 1.3125 -3.6875 C 1.3125 -4.257812 1.445312 -4.753906 1.71875 -5.171875 C 2 -5.585938 2.363281 -5.9375 2.8125 -6.21875 C 3.269531 -6.5 3.769531 -6.726562 4.3125 -6.90625 C 4.851562 -7.082031 5.398438 -7.207031 5.953125 -7.28125 C 5.097656 -7.78125 4.476562 -8.367188 4.09375 -9.046875 C 3.71875 -9.722656 3.53125 -10.429688 3.53125 -11.171875 C 3.53125 -12.222656 3.84375 -13.132812 4.46875 -13.90625 C 5.09375 -14.675781 6.046875 -15.269531 7.328125 -15.6875 C 8.609375 -16.101562 10.25 -16.3125 12.25 -16.3125 C 12.957031 -16.3125 13.617188 -16.285156 14.234375 -16.234375 C 14.859375 -16.191406 15.4375 -16.132812 15.96875 -16.0625 C 16.414062 -16.082031 16.796875 -16.269531 17.109375 -16.625 C 17.429688 -16.988281 17.59375 -17.4375 17.59375 -17.96875 C 17.59375 -18.226562 17.550781 -18.523438 17.46875 -18.859375 C 17.394531 -19.203125 17.3125 -19.519531 17.21875 -19.8125 C 17.132812 -20.101562 17.070312 -20.300781 17.03125 -20.40625 L 21.015625 -20.15625 C 21.066406 -20.082031 21.132812 -19.945312 21.21875 -19.75 C 21.3125 -19.5625 21.390625 -19.328125 21.453125 -19.046875 C 21.523438 -18.773438 21.5625 -18.484375 21.5625 -18.171875 C 21.5625 -17.503906 21.300781 -16.910156 20.78125 -16.390625 C 20.269531 -15.878906 19.53125 -15.535156 18.5625 -15.359375 C 19.59375 -14.941406 20.347656 -14.378906 20.828125 -13.671875 C 21.316406 -12.972656 21.5625 -12.140625 21.5625 -11.171875 C 21.5625 -10.054688 21.207031 -9.109375 20.5 -8.328125 C 19.789062 -7.546875 18.757812 -6.945312 17.40625 -6.53125 C 16.050781 -6.113281 14.421875 -5.90625 12.515625 -5.90625 C 12.097656 -5.90625 11.597656 -5.894531 11.015625 -5.875 C 10.441406 -5.863281 9.84375 -5.832031 9.21875 -5.78125 C 8.601562 -5.738281 8.023438 -5.671875 7.484375 -5.578125 C 6.953125 -5.492188 6.515625 -5.367188 6.171875 -5.203125 C 5.835938 -5.046875 5.671875 -4.847656 5.671875 -4.609375 C 5.671875 -4.253906 5.828125 -4 6.140625 -3.84375 C 6.460938 -3.695312 6.984375 -3.632812 7.703125 -3.65625 Z M 12.5 -13.46875 C 11.664062 -13.46875 10.988281 -13.351562 10.46875 -13.125 C 9.945312 -12.90625 9.5625 -12.625 9.3125 -12.28125 C 9.070312 -11.9375 8.953125 -11.554688 8.953125 -11.140625 C 8.953125 -10.734375 9.070312 -10.347656 9.3125 -9.984375 C 9.5625 -9.628906 9.945312 -9.335938 10.46875 -9.109375 C 10.988281 -8.890625 11.664062 -8.78125 12.5 -8.78125 C 13.320312 -8.78125 14 -8.890625 14.53125 -9.109375 C 15.070312 -9.328125 15.472656 -9.617188 15.734375 -9.984375 C 16.003906 -10.347656 16.140625 -10.734375 16.140625 -11.140625 C 16.140625 -11.546875 16.007812 -11.921875 15.75 -12.265625 C 15.488281 -12.617188 15.09375 -12.90625 14.5625 -13.125 C 14.03125 -13.351562 13.34375 -13.46875 12.5 -13.46875 Z M 11.796875 3.109375 C 12.816406 3.109375 13.65625 3.054688 14.3125 2.953125 C 14.96875 2.859375 15.484375 2.71875 15.859375 2.53125 C 16.242188 2.34375 16.515625 2.132812 16.671875 1.90625 C 16.828125 1.675781 16.90625 1.441406 16.90625 1.203125 C 16.90625 0.878906 16.804688 0.601562 16.609375 0.375 C 16.410156 0.144531 16.039062 -0.03125 15.5 -0.15625 C 14.96875 -0.289062 14.1875 -0.347656 13.15625 -0.328125 L 7.875 -0.25 L 7.234375 -0.25 C 6.847656 -0.0625 6.59375 0.203125 6.46875 0.546875 C 6.34375 0.898438 6.28125 1.226562 6.28125 1.53125 C 6.28125 1.863281 6.445312 2.148438 6.78125 2.390625 C 7.113281 2.628906 7.679688 2.804688 8.484375 2.921875 C 9.285156 3.046875 10.390625 3.109375 11.796875 3.109375 Z M 11.796875 3.109375 "/></g></g></g><g fill="#ffffff" fill-opacity="1"><g transform="translate(273.569075, 326.734726)"><g><path d="M 12.1875 0.53125 C 10.414062 0.53125 8.820312 0.34375 7.40625 -0.03125 C 5.988281 -0.414062 4.773438 -0.96875 3.765625 -1.6875 C 2.765625 -2.414062 2 -3.289062 1.46875 -4.3125 C 0.9375 -5.34375 0.671875 -6.507812 0.671875 -7.8125 C 0.671875 -9.082031 0.914062 -10.238281 1.40625 -11.28125 C 1.90625 -12.320312 2.625 -13.21875 3.5625 -13.96875 C 4.507812 -14.726562 5.664062 -15.304688 7.03125 -15.703125 C 8.394531 -16.109375 9.941406 -16.3125 11.671875 -16.3125 C 13.242188 -16.3125 14.660156 -16.078125 15.921875 -15.609375 C 17.191406 -15.140625 18.273438 -14.488281 19.171875 -13.65625 C 20.066406 -12.820312 20.753906 -11.851562 21.234375 -10.75 C 21.710938 -9.65625 21.953125 -8.476562 21.953125 -7.21875 C 21.953125 -7.132812 21.945312 -7.046875 21.9375 -6.953125 C 21.9375 -6.867188 21.9375 -6.785156 21.9375 -6.703125 L 5.671875 -6.703125 C 5.742188 -5.941406 6.066406 -5.28125 6.640625 -4.71875 C 7.210938 -4.15625 7.972656 -3.722656 8.921875 -3.421875 C 9.867188 -3.117188 10.9375 -2.96875 12.125 -2.96875 C 13.34375 -2.96875 14.445312 -3.160156 15.4375 -3.546875 C 16.425781 -3.929688 17.203125 -4.585938 17.765625 -5.515625 C 17.796875 -5.515625 17.828125 -5.507812 17.859375 -5.5 C 17.890625 -5.5 17.914062 -5.5 17.9375 -5.5 L 21.546875 -3.703125 C 20.734375 -2.679688 19.832031 -1.859375 18.84375 -1.234375 C 17.863281 -0.609375 16.816406 -0.160156 15.703125 0.109375 C 14.585938 0.390625 13.414062 0.53125 12.1875 0.53125 Z M 5.734375 -9.65625 L 16.71875 -9.65625 C 16.675781 -10.257812 16.453125 -10.816406 16.046875 -11.328125 C 15.648438 -11.835938 15.070312 -12.242188 14.3125 -12.546875 C 13.5625 -12.859375 12.625 -13.015625 11.5 -13.015625 C 10.414062 -13.015625 9.457031 -12.867188 8.625 -12.578125 C 7.800781 -12.296875 7.140625 -11.90625 6.640625 -11.40625 C 6.140625 -10.90625 5.835938 -10.320312 5.734375 -9.65625 Z M 5.734375 -9.65625 "/></g></g></g></svg>