<svg xmlns="http://www.w3.org/2000/svg" xmlns:xlink="http://www.w3.org/1999/xlink" width="500" zoomAndPan="magnify" viewBox="0 0 375 374.999991" height="500" preserveAspectRatio="xMidYMid meet" version="1.0"><defs><g/><clipPath id="fffb141f78"><path d="M 100.023438 79 L 259 79 L 259 219.847656 L 100.023438 219.847656 Z M 100.023438 79 " clip-rule="nonzero"/></clipPath></defs><rect x="-37.5" width="450" fill="#ffffff" y="-37.499999" height="449.999989" fill-opacity="1"/><rect x="-37.5" width="450" fill="#5271ff" y="-37.499999" height="449.999989" fill-opacity="1"/><path fill="#427396" d="M 191.171875 185.050781 L 191.171875 217.664062 L 149.398438 217.664062 L 147.046875 197.972656 C 146.503906 193.46875 142.035156 190.636719 137.503906 190.636719 L 126.476562 190.636719 C 126.035156 190.640625 125.597656 190.601562 125.164062 190.527344 C 124.726562 190.449219 124.304688 190.332031 123.890625 190.179688 C 123.476562 190.027344 123.078125 189.835938 122.699219 189.613281 C 122.320312 189.386719 121.960938 189.128906 121.628906 188.839844 C 121.292969 188.550781 120.988281 188.230469 120.710938 187.886719 C 120.433594 187.542969 120.191406 187.175781 119.980469 186.789062 C 119.769531 186.398438 119.59375 185.992188 119.457031 185.574219 C 119.320312 185.152344 119.21875 184.722656 119.160156 184.285156 L 115.984375 162.25 L 102.304688 162.25 L 109.140625 149.125 C 113.511719 140.742188 115.773438 132.808594 116.539062 123.390625 C 122.496094 48.847656 274.730469 90.53125 191.171875 185.050781 Z M 191.171875 185.050781 " fill-opacity="1" fill-rule="evenodd"/><path fill="#ffba57" d="M 193.636719 142.269531 C 192.878906 145.488281 191.632812 148.503906 189.894531 151.3125 L 191.621094 154.21875 L 193.722656 157.753906 C 191.667969 160.476562 189.28125 162.867188 186.5625 164.929688 L 183.039062 162.824219 L 180.144531 161.089844 C 177.339844 162.835938 174.332031 164.085938 171.117188 164.84375 L 170.292969 168.109375 L 169.292969 172.109375 C 165.914062 172.566406 162.539062 172.566406 159.160156 172.109375 L 158.152344 168.109375 L 157.328125 164.84375 C 154.117188 164.082031 151.113281 162.832031 148.308594 161.089844 L 145.417969 162.824219 L 141.890625 164.929688 C 139.171875 162.867188 136.78125 160.476562 134.722656 157.75 L 136.835938 154.21875 L 138.5625 151.320312 C 136.820312 148.507812 135.570312 145.492188 134.820312 142.269531 L 131.558594 141.441406 L 127.570312 140.441406 C 127.113281 137.054688 127.113281 133.667969 127.570312 130.285156 L 131.558594 129.273438 L 134.820312 128.449219 C 135.574219 125.230469 136.820312 122.214844 138.5625 119.40625 L 136.835938 116.507812 L 134.726562 112.976562 C 136.789062 110.253906 139.175781 107.859375 141.894531 105.796875 L 145.421875 107.90625 L 148.3125 109.636719 C 151.113281 107.890625 154.121094 106.640625 157.332031 105.886719 L 158.15625 102.617188 L 159.164062 98.617188 C 162.542969 98.160156 165.917969 98.160156 169.296875 98.617188 L 170.296875 102.617188 L 171.121094 105.886719 C 174.332031 106.640625 177.339844 107.890625 180.140625 109.636719 L 183.039062 107.90625 L 186.566406 105.796875 C 189.28125 107.859375 191.667969 110.253906 193.726562 112.976562 L 191.625 116.507812 L 189.898438 119.410156 C 191.640625 122.21875 192.886719 125.234375 193.640625 128.457031 L 196.898438 129.277344 L 200.886719 130.285156 C 201.347656 133.671875 201.347656 137.058594 200.886719 140.441406 L 196.898438 141.445312 Z M 193.636719 142.269531 " fill-opacity="1" fill-rule="evenodd"/><path fill="#dfeef5" d="M 183.195312 135.367188 C 183.195312 135.988281 183.167969 136.609375 183.105469 137.230469 C 183.042969 137.847656 182.953125 138.464844 182.832031 139.074219 C 182.710938 139.683594 182.558594 140.289062 182.378906 140.882812 C 182.199219 141.480469 181.992188 142.066406 181.753906 142.640625 C 181.515625 143.214844 181.25 143.777344 180.957031 144.328125 C 180.664062 144.878906 180.34375 145.410156 180 145.929688 C 179.65625 146.445312 179.285156 146.945312 178.890625 147.425781 C 178.496094 147.910156 178.082031 148.371094 177.640625 148.808594 C 177.203125 149.25 176.742188 149.667969 176.261719 150.0625 C 175.78125 150.457031 175.285156 150.828125 174.765625 151.175781 C 174.25 151.519531 173.71875 151.839844 173.171875 152.132812 C 172.621094 152.425781 172.0625 152.691406 171.488281 152.929688 C 170.914062 153.167969 170.328125 153.378906 169.734375 153.558594 C 169.140625 153.742188 168.539062 153.890625 167.929688 154.011719 C 167.320312 154.132812 166.707031 154.226562 166.089844 154.285156 C 165.46875 154.347656 164.851562 154.378906 164.230469 154.378906 C 163.609375 154.378906 162.988281 154.347656 162.371094 154.285156 C 161.75 154.226562 161.136719 154.132812 160.527344 154.011719 C 159.917969 153.890625 159.316406 153.742188 158.722656 153.558594 C 158.128906 153.378906 157.542969 153.167969 156.96875 152.929688 C 156.394531 152.691406 155.835938 152.425781 155.289062 152.132812 C 154.738281 151.839844 154.207031 151.519531 153.691406 151.175781 C 153.175781 150.828125 152.675781 150.457031 152.195312 150.0625 C 151.714844 149.667969 151.253906 149.25 150.816406 148.808594 C 150.378906 148.371094 149.960938 147.910156 149.566406 147.425781 C 149.171875 146.945312 148.800781 146.445312 148.457031 145.929688 C 148.113281 145.410156 147.792969 144.878906 147.5 144.328125 C 147.207031 143.777344 146.941406 143.214844 146.703125 142.640625 C 146.46875 142.066406 146.257812 141.480469 146.078125 140.882812 C 145.898438 140.289062 145.746094 139.683594 145.625 139.074219 C 145.503906 138.464844 145.414062 137.847656 145.351562 137.230469 C 145.292969 136.609375 145.261719 135.988281 145.261719 135.367188 C 145.261719 134.742188 145.292969 134.121094 145.351562 133.5 C 145.414062 132.882812 145.503906 132.265625 145.625 131.65625 C 145.746094 131.046875 145.898438 130.441406 146.078125 129.847656 C 146.257812 129.25 146.46875 128.664062 146.703125 128.089844 C 146.941406 127.515625 147.207031 126.953125 147.5 126.402344 C 147.792969 125.851562 148.113281 125.320312 148.457031 124.800781 C 148.804688 124.285156 149.171875 123.785156 149.566406 123.304688 C 149.960938 122.820312 150.378906 122.359375 150.816406 121.921875 C 151.257812 121.480469 151.714844 121.0625 152.195312 120.667969 C 152.675781 120.273438 153.175781 119.902344 153.691406 119.554688 C 154.207031 119.210938 154.738281 118.890625 155.289062 118.597656 C 155.835938 118.304688 156.394531 118.039062 156.96875 117.800781 C 157.542969 117.5625 158.128906 117.351562 158.722656 117.171875 C 159.316406 116.988281 159.917969 116.839844 160.527344 116.71875 C 161.136719 116.597656 161.75 116.503906 162.371094 116.445312 C 162.988281 116.382812 163.609375 116.351562 164.230469 116.351562 C 164.851562 116.351562 165.46875 116.382812 166.089844 116.445312 C 166.707031 116.503906 167.320312 116.597656 167.929688 116.71875 C 168.539062 116.839844 169.140625 116.992188 169.734375 117.171875 C 170.328125 117.351562 170.914062 117.5625 171.488281 117.800781 C 172.0625 118.039062 172.621094 118.304688 173.171875 118.597656 C 173.71875 118.890625 174.25 119.210938 174.765625 119.558594 C 175.28125 119.902344 175.78125 120.273438 176.261719 120.667969 C 176.742188 121.0625 177.203125 121.480469 177.640625 121.921875 C 178.082031 122.363281 178.496094 122.824219 178.890625 123.304688 C 179.285156 123.785156 179.65625 124.285156 180 124.800781 C 180.34375 125.320312 180.664062 125.855469 180.957031 126.402344 C 181.25 126.953125 181.515625 127.515625 181.753906 128.089844 C 181.992188 128.664062 182.199219 129.25 182.378906 129.847656 C 182.558594 130.441406 182.710938 131.046875 182.832031 131.65625 C 182.953125 132.265625 183.042969 132.882812 183.105469 133.5 C 183.167969 134.121094 183.195312 134.742188 183.195312 135.367188 Z M 183.195312 135.367188 " fill-opacity="1" fill-rule="evenodd"/><path fill="#fa4655" d="M 243.773438 100.441406 C 244.394531 100.441406 245.007812 100.378906 245.617188 100.257812 C 246.226562 100.136719 246.816406 99.957031 247.390625 99.71875 C 247.960938 99.480469 248.507812 99.191406 249.023438 98.84375 C 249.539062 98.5 250.015625 98.105469 250.453125 97.667969 C 250.894531 97.226562 251.285156 96.75 251.628906 96.230469 C 251.972656 95.714844 252.265625 95.167969 252.503906 94.59375 C 252.738281 94.019531 252.917969 93.425781 253.039062 92.816406 C 253.160156 92.207031 253.222656 91.589844 253.222656 90.96875 C 253.222656 90.347656 253.160156 89.730469 253.039062 89.121094 C 252.917969 88.511719 252.742188 87.917969 252.503906 87.34375 C 252.265625 86.769531 251.972656 86.222656 251.628906 85.707031 C 251.285156 85.191406 250.894531 84.710938 250.453125 84.273438 C 250.015625 83.832031 249.539062 83.4375 249.023438 83.09375 C 248.507812 82.75 247.960938 82.457031 247.390625 82.21875 C 246.816406 81.980469 246.226562 81.800781 245.617188 81.679688 C 245.007812 81.558594 244.394531 81.496094 243.773438 81.496094 C 243.152344 81.496094 242.539062 81.558594 241.929688 81.679688 C 241.320312 81.800781 240.730469 81.980469 240.15625 82.21875 C 239.582031 82.457031 239.039062 82.75 238.523438 83.09375 C 238.007812 83.4375 237.53125 83.832031 237.089844 84.273438 C 236.652344 84.710938 236.261719 85.191406 235.917969 85.707031 C 235.570312 86.222656 235.28125 86.769531 235.042969 87.34375 C 234.804688 87.917969 234.625 88.511719 234.503906 89.121094 C 234.382812 89.730469 234.324219 90.347656 234.324219 90.96875 C 234.324219 91.589844 234.386719 92.207031 234.507812 92.816406 C 234.632812 93.425781 234.8125 94.015625 235.050781 94.589844 C 235.289062 95.164062 235.578125 95.710938 235.921875 96.226562 C 236.269531 96.742188 236.660156 97.21875 237.097656 97.660156 C 237.535156 98.097656 238.011719 98.492188 238.527344 98.835938 C 239.042969 99.183594 239.589844 99.476562 240.160156 99.714844 C 240.734375 99.953125 241.324219 100.132812 241.929688 100.253906 C 242.539062 100.375 243.152344 100.4375 243.773438 100.441406 Z M 243.773438 100.441406 " fill-opacity="1" fill-rule="evenodd"/><path fill="#4090ff" d="M 234.324219 125.894531 L 253.230469 125.894531 L 253.230469 144.835938 L 234.324219 144.835938 Z M 234.324219 125.894531 " fill-opacity="1" fill-rule="nonzero"/><path fill="#45bf64" d="M 243.78125 165.324219 L 250.03125 176.183594 L 256.289062 187.042969 L 231.265625 187.042969 Z M 243.78125 165.324219 " fill-opacity="1" fill-rule="evenodd"/><path fill="#3b6887" d="M 109.253906 162.25 L 116.097656 149.125 C 120.464844 140.742188 122.734375 132.808594 123.488281 123.390625 C 125.496094 98.324219 144.042969 86.402344 164.605469 85.207031 C 141.449219 83.898438 118.765625 95.519531 116.539062 123.390625 C 115.773438 132.808594 113.511719 140.742188 109.140625 149.125 L 102.304688 162.25 Z M 156.359375 217.664062 L 154.007812 197.972656 C 153.464844 193.46875 148.992188 190.636719 144.460938 190.636719 L 137.503906 190.636719 C 142.035156 190.636719 146.503906 193.46875 147.050781 197.972656 L 149.398438 217.664062 Z M 126.117188 184.285156 L 122.945312 162.25 L 115.984375 162.25 L 119.160156 184.285156 C 119.21875 184.722656 119.320312 185.152344 119.457031 185.574219 C 119.59375 185.992188 119.769531 186.398438 119.980469 186.789062 C 120.191406 187.175781 120.433594 187.542969 120.710938 187.886719 C 120.988281 188.230469 121.292969 188.550781 121.628906 188.839844 C 121.960938 189.128906 122.320312 189.386719 122.699219 189.613281 C 123.078125 189.835938 123.476562 190.027344 123.890625 190.179688 C 124.304688 190.332031 124.726562 190.449219 125.164062 190.527344 C 125.597656 190.601562 126.035156 190.640625 126.476562 190.636719 L 133.4375 190.636719 C 132.996094 190.640625 132.558594 190.601562 132.121094 190.527344 C 131.6875 190.449219 131.261719 190.332031 130.847656 190.179688 C 130.433594 190.027344 130.039062 189.835938 129.660156 189.613281 C 129.277344 189.386719 128.921875 189.128906 128.585938 188.839844 C 128.253906 188.550781 127.949219 188.230469 127.671875 187.886719 C 127.394531 187.542969 127.152344 187.175781 126.941406 186.789062 C 126.730469 186.398438 126.554688 185.992188 126.417969 185.574219 C 126.277344 185.152344 126.179688 184.722656 126.117188 184.285156 Z M 126.117188 184.285156 " fill-opacity="1" fill-rule="evenodd"/><path fill="#e6a74e" d="M 154.578125 109.640625 C 157.378906 107.894531 160.386719 106.640625 163.597656 105.890625 L 164.421875 102.621094 L 165.421875 98.621094 C 166.0625 98.535156 166.710938 98.464844 167.359375 98.410156 C 166.324219 98.324219 165.28125 98.28125 164.230469 98.28125 C 162.53125 98.277344 160.84375 98.390625 159.164062 98.621094 L 158.15625 102.621094 L 157.332031 105.890625 C 155.355469 106.351562 153.449219 107.011719 151.605469 107.867188 L 151.6875 107.910156 Z M 163.597656 164.84375 C 160.386719 164.085938 157.382812 162.835938 154.578125 161.089844 L 151.6875 162.824219 L 151.605469 162.867188 C 153.449219 163.714844 155.355469 164.375 157.332031 164.84375 L 158.15625 168.113281 L 159.164062 172.109375 C 160.84375 172.339844 162.53125 172.453125 164.230469 172.453125 C 165.28125 172.453125 166.324219 172.410156 167.359375 172.320312 C 166.707031 172.269531 166.0625 172.195312 165.421875 172.109375 L 164.421875 168.113281 Z M 140.992188 157.75 L 143.09375 154.21875 L 144.820312 151.320312 C 143.082031 148.507812 141.839844 145.488281 141.089844 142.269531 L 137.820312 141.441406 L 133.839844 140.445312 C 133.371094 137.058594 133.371094 133.671875 133.839844 130.285156 L 137.820312 129.277344 L 141.089844 128.449219 C 141.839844 125.230469 143.085938 122.21875 144.824219 119.410156 L 143.097656 116.511719 L 140.996094 112.976562 C 142.355469 111.167969 143.875 109.503906 145.542969 107.976562 L 145.421875 107.90625 L 141.894531 105.800781 C 139.175781 107.863281 136.789062 110.257812 134.726562 112.976562 L 136.835938 116.511719 L 138.5625 119.410156 C 136.824219 122.21875 135.574219 125.234375 134.824219 128.453125 L 131.5625 129.277344 L 127.574219 130.289062 C 127.117188 133.671875 127.117188 137.058594 127.574219 140.445312 L 131.5625 141.445312 L 134.824219 142.273438 C 135.570312 145.496094 136.820312 148.511719 138.5625 151.324219 L 136.835938 154.222656 L 134.726562 157.753906 C 136.785156 160.480469 139.175781 162.871094 141.894531 164.933594 L 145.421875 162.824219 L 145.542969 162.753906 C 143.875 161.230469 142.355469 159.5625 140.996094 157.757812 Z M 140.992188 157.75 " fill-opacity="1" fill-rule="evenodd"/><path fill="#3eac5a" d="M 243.894531 176.183594 L 246.964844 170.859375 L 243.78125 165.324219 L 237.523438 176.183594 L 236.542969 177.878906 L 234.210938 181.929688 L 231.265625 187.042969 L 237.644531 187.042969 Z M 243.894531 176.183594 " fill-opacity="1" fill-rule="evenodd"/><path fill="#3a82e6" d="M 234.324219 125.894531 L 240.703125 125.894531 L 240.703125 144.835938 L 234.324219 144.835938 Z M 234.324219 125.894531 " fill-opacity="1" fill-rule="evenodd"/><path fill="#e13f4d" d="M 234.570312 93.121094 C 234.691406 93.640625 234.855469 94.140625 235.058594 94.632812 C 235.265625 95.121094 235.507812 95.589844 235.792969 96.039062 C 236.078125 96.484375 236.394531 96.90625 236.75 97.300781 C 237.105469 97.695312 237.488281 98.058594 237.90625 98.390625 C 238.320312 98.71875 238.757812 99.011719 239.222656 99.265625 C 239.6875 99.523438 240.171875 99.738281 240.671875 99.914062 C 241.171875 100.085938 241.679688 100.21875 242.203125 100.308594 C 242.726562 100.394531 243.253906 100.441406 243.78125 100.441406 C 244.875 100.441406 245.933594 100.257812 246.964844 99.886719 C 246.046875 99.558594 245.203125 99.097656 244.429688 98.503906 C 243.652344 97.914062 242.988281 97.21875 242.425781 96.421875 C 241.867188 95.621094 241.441406 94.757812 241.144531 93.828125 C 240.851562 92.898438 240.707031 91.945312 240.707031 90.96875 C 240.707031 89.992188 240.851562 89.039062 241.144531 88.109375 C 241.441406 87.179688 241.867188 86.316406 242.425781 85.519531 C 242.988281 84.71875 243.652344 84.023438 244.429688 83.433594 C 245.203125 82.84375 246.046875 82.382812 246.964844 82.050781 C 245.933594 81.679688 244.875 81.496094 243.78125 81.496094 C 243.253906 81.496094 242.726562 81.542969 242.203125 81.632812 C 241.679688 81.71875 241.171875 81.851562 240.671875 82.027344 C 240.167969 82.199219 239.6875 82.414062 239.222656 82.671875 C 238.757812 82.925781 238.320312 83.21875 237.90625 83.550781 C 237.488281 83.878906 237.105469 84.242188 236.75 84.636719 C 236.394531 85.03125 236.078125 85.453125 235.792969 85.902344 C 235.507812 86.347656 235.265625 86.816406 235.058594 87.308594 C 234.855469 87.796875 234.691406 88.300781 234.570312 88.816406 C 234.238281 90.25 234.238281 91.6875 234.570312 93.121094 Z M 234.570312 93.121094 " fill-opacity="1" fill-rule="evenodd"/><g clip-path="url(#fffb141f78)"><path fill="#000000" d="M 195.582031 156.640625 L 192.410156 151.308594 C 193.707031 149.015625 194.707031 146.597656 195.414062 144.058594 L 201.410156 142.546875 C 201.84375 142.441406 202.207031 142.21875 202.5 141.886719 C 202.796875 141.554688 202.972656 141.167969 203.03125 140.726562 C 203.515625 137.152344 203.515625 133.578125 203.03125 130.003906 C 202.972656 129.5625 202.796875 129.175781 202.503906 128.84375 C 202.207031 128.511719 201.847656 128.292969 201.414062 128.183594 L 195.410156 126.664062 C 194.707031 124.125 193.707031 121.710938 192.414062 119.414062 L 195.582031 114.089844 C 195.808594 113.710938 195.910156 113.300781 195.886719 112.859375 C 195.863281 112.417969 195.714844 112.019531 195.449219 111.667969 C 193.273438 108.785156 190.746094 106.25 187.875 104.0625 C 187.523438 103.796875 187.125 103.648438 186.683594 103.625 C 186.242188 103.601562 185.832031 103.703125 185.449219 103.929688 L 180.136719 107.113281 C 177.847656 105.816406 175.4375 104.8125 172.902344 104.109375 L 171.394531 98.09375 C 171.285156 97.664062 171.066406 97.300781 170.738281 97.007812 C 170.410156 96.710938 170.027344 96.53125 169.589844 96.472656 C 166.015625 95.988281 162.441406 95.988281 158.867188 96.472656 C 158.429688 96.53125 158.046875 96.710938 157.71875 97.003906 C 157.386719 97.300781 157.167969 97.660156 157.0625 98.089844 L 155.542969 104.109375 C 153.011719 104.8125 150.601562 105.816406 148.3125 107.113281 L 143.007812 103.929688 C 142.628906 103.703125 142.21875 103.601562 141.777344 103.625 C 141.335938 103.648438 140.9375 103.792969 140.585938 104.0625 C 137.707031 106.246094 135.175781 108.78125 132.996094 111.667969 C 132.730469 112.023438 132.585938 112.417969 132.5625 112.863281 C 132.539062 113.304688 132.640625 113.714844 132.867188 114.09375 L 136.042969 119.414062 C 134.746094 121.707031 133.746094 124.125 133.042969 126.664062 L 127.042969 128.183594 C 126.613281 128.292969 126.253906 128.511719 125.960938 128.839844 C 125.664062 129.167969 125.488281 129.554688 125.425781 129.992188 C 124.941406 133.574219 124.941406 137.15625 125.425781 140.738281 C 125.488281 141.179688 125.664062 141.5625 125.960938 141.890625 C 126.253906 142.222656 126.617188 142.441406 127.046875 142.546875 L 133.042969 144.058594 C 133.746094 146.601562 134.746094 149.019531 136.046875 151.316406 L 132.867188 156.636719 C 132.640625 157.015625 132.539062 157.429688 132.5625 157.871094 C 132.585938 158.3125 132.734375 158.710938 133 159.066406 C 135.179688 161.949219 137.710938 164.480469 140.589844 166.664062 C 140.941406 166.929688 141.339844 167.074219 141.777344 167.097656 C 142.21875 167.121094 142.625 167.019531 143.003906 166.792969 L 148.316406 163.613281 C 150.605469 164.910156 153.015625 165.914062 155.546875 166.621094 L 157.0625 172.640625 C 157.171875 173.070312 157.390625 173.433594 157.722656 173.730469 C 158.054688 174.027344 158.4375 174.203125 158.878906 174.261719 C 162.445312 174.746094 166.011719 174.746094 169.578125 174.261719 C 170.019531 174.203125 170.40625 174.023438 170.738281 173.730469 C 171.066406 173.433594 171.289062 173.070312 171.394531 172.636719 L 172.902344 166.625 C 175.4375 165.914062 177.847656 164.910156 180.140625 163.613281 L 185.453125 166.792969 C 185.832031 167.019531 186.242188 167.121094 186.683594 167.097656 C 187.125 167.074219 187.519531 166.925781 187.871094 166.660156 C 190.742188 164.472656 193.269531 161.941406 195.449219 159.066406 C 195.714844 158.710938 195.863281 158.316406 195.886719 157.871094 C 195.910156 157.429688 195.808594 157.019531 195.582031 156.640625 Z M 191.527344 141.773438 C 190.828125 144.761719 189.667969 147.5625 188.054688 150.167969 C 187.839844 150.515625 187.730469 150.886719 187.726562 151.292969 C 187.726562 151.699219 187.828125 152.074219 188.03125 152.421875 L 191.097656 157.578125 C 189.679688 159.300781 188.109375 160.875 186.390625 162.296875 L 181.257812 159.226562 C 180.910156 159.019531 180.535156 158.917969 180.128906 158.917969 C 179.726562 158.921875 179.351562 159.03125 179.007812 159.242188 C 176.402344 160.863281 173.605469 162.023438 170.621094 162.730469 C 170.230469 162.820312 169.886719 163.011719 169.601562 163.292969 C 169.3125 163.578125 169.117188 163.917969 169.019531 164.308594 L 167.558594 170.121094 C 165.339844 170.332031 163.117188 170.332031 160.894531 170.121094 L 159.429688 164.308594 C 159.332031 163.917969 159.136719 163.578125 158.847656 163.296875 C 158.5625 163.011719 158.21875 162.824219 157.828125 162.730469 C 154.847656 162.027344 152.054688 160.863281 149.453125 159.246094 C 149.109375 159.03125 148.734375 158.921875 148.328125 158.921875 C 147.925781 158.917969 147.546875 159.019531 147.203125 159.226562 L 142.0625 162.300781 C 140.34375 160.878906 138.773438 159.304688 137.351562 157.582031 L 140.421875 152.433594 C 140.628906 152.082031 140.734375 151.707031 140.730469 151.300781 C 140.726562 150.894531 140.617188 150.519531 140.402344 150.175781 C 138.785156 147.570312 137.625 144.769531 136.929688 141.777344 C 136.839844 141.382812 136.652344 141.039062 136.367188 140.75 C 136.082031 140.460938 135.746094 140.265625 135.351562 140.167969 L 129.550781 138.703125 C 129.449219 137.605469 129.394531 136.484375 129.394531 135.363281 C 129.394531 134.242188 129.449219 133.121094 129.550781 132.023438 L 135.351562 130.554688 C 135.742188 130.453125 136.082031 130.261719 136.363281 129.972656 C 136.648438 129.683594 136.835938 129.339844 136.929688 128.945312 C 137.628906 125.957031 138.785156 123.160156 140.402344 120.554688 C 140.617188 120.210938 140.726562 119.835938 140.730469 119.429688 C 140.734375 119.023438 140.632812 118.644531 140.421875 118.296875 L 137.351562 113.144531 C 138.769531 111.421875 140.34375 109.84375 142.0625 108.421875 L 147.203125 111.5 C 147.550781 111.710938 147.925781 111.8125 148.332031 111.808594 C 148.738281 111.804688 149.113281 111.695312 149.457031 111.480469 C 152.054688 109.859375 154.847656 108.699219 157.828125 108 C 158.222656 107.90625 158.5625 107.71875 158.851562 107.433594 C 159.136719 107.148438 159.332031 106.808594 159.429688 106.417969 L 160.894531 100.601562 C 163.117188 100.394531 165.339844 100.394531 167.558594 100.601562 L 169.019531 106.417969 C 169.117188 106.8125 169.3125 107.148438 169.601562 107.433594 C 169.890625 107.71875 170.230469 107.90625 170.621094 108 C 173.605469 108.699219 176.394531 109.859375 178.992188 111.480469 C 179.335938 111.695312 179.710938 111.804688 180.117188 111.808594 C 180.519531 111.8125 180.898438 111.710938 181.246094 111.503906 L 186.390625 108.421875 C 188.113281 109.847656 189.679688 111.421875 191.101562 113.148438 L 188.035156 118.296875 C 187.828125 118.644531 187.726562 119.019531 187.730469 119.425781 C 187.730469 119.832031 187.839844 120.207031 188.054688 120.550781 C 189.667969 123.160156 190.828125 125.957031 191.53125 128.945312 C 191.621094 129.339844 191.808594 129.683594 192.09375 129.972656 C 192.378906 130.261719 192.714844 130.453125 193.105469 130.554688 L 198.902344 132.023438 C 199.007812 133.15625 199.0625 134.273438 199.0625 135.363281 C 199.0625 136.453125 199.007812 137.570312 198.902344 138.703125 L 193.105469 140.164062 C 192.714844 140.265625 192.375 140.460938 192.09375 140.75 C 191.808594 141.039062 191.621094 141.378906 191.527344 141.773438 Z M 164.230469 114.179688 C 163.535156 114.179688 162.847656 114.214844 162.15625 114.285156 C 161.46875 114.351562 160.785156 114.453125 160.105469 114.589844 C 159.425781 114.722656 158.757812 114.890625 158.09375 115.09375 C 157.433594 115.292969 156.78125 115.527344 156.140625 115.792969 C 155.5 116.058594 154.878906 116.355469 154.265625 116.683594 C 153.65625 117.007812 153.0625 117.367188 152.488281 117.75 C 151.914062 118.136719 151.355469 118.550781 150.820312 118.988281 C 150.285156 119.429688 149.773438 119.894531 149.285156 120.386719 C 148.796875 120.875 148.332031 121.390625 147.890625 121.925781 C 147.453125 122.460938 147.042969 123.019531 146.65625 123.597656 C 146.273438 124.171875 145.917969 124.765625 145.589844 125.378906 C 145.265625 125.992188 144.96875 126.617188 144.703125 127.257812 C 144.4375 127.898438 144.207031 128.550781 144.003906 129.214844 C 143.804688 129.878906 143.636719 130.550781 143.5 131.230469 C 143.367188 131.914062 143.265625 132.597656 143.195312 133.289062 C 143.128906 133.980469 143.09375 134.671875 143.09375 135.363281 C 143.09375 136.058594 143.128906 136.75 143.195312 137.441406 C 143.265625 138.132812 143.367188 138.816406 143.5 139.496094 C 143.636719 140.179688 143.804688 140.851562 144.003906 141.515625 C 144.207031 142.179688 144.4375 142.832031 144.703125 143.472656 C 144.96875 144.113281 145.265625 144.738281 145.589844 145.351562 C 145.917969 145.960938 146.273438 146.558594 146.65625 147.132812 C 147.042969 147.710938 147.453125 148.265625 147.890625 148.804688 C 148.332031 149.339844 148.796875 149.851562 149.285156 150.34375 C 149.773438 150.835938 150.285156 151.300781 150.820312 151.738281 C 151.355469 152.179688 151.914062 152.59375 152.488281 152.976562 C 153.0625 153.363281 153.65625 153.71875 154.265625 154.046875 C 154.878906 154.375 155.5 154.671875 156.140625 154.9375 C 156.78125 155.203125 157.433594 155.433594 158.09375 155.636719 C 158.757812 155.835938 159.425781 156.007812 160.105469 156.140625 C 160.785156 156.277344 161.46875 156.378906 162.15625 156.445312 C 162.847656 156.515625 163.535156 156.546875 164.230469 156.546875 C 164.921875 156.546875 165.613281 156.515625 166.300781 156.445312 C 166.988281 156.378906 167.671875 156.277344 168.351562 156.140625 C 169.03125 156.007812 169.699219 155.835938 170.363281 155.636719 C 171.027344 155.433594 171.675781 155.203125 172.316406 154.9375 C 172.957031 154.671875 173.582031 154.375 174.191406 154.046875 C 174.800781 153.71875 175.394531 153.363281 175.96875 152.976562 C 176.546875 152.59375 177.101562 152.179688 177.636719 151.738281 C 178.171875 151.300781 178.683594 150.835938 179.171875 150.34375 C 179.660156 149.851562 180.125 149.339844 180.566406 148.804688 C 181.003906 148.265625 181.414062 147.710938 181.800781 147.132812 C 182.183594 146.558594 182.539062 145.960938 182.867188 145.351562 C 183.191406 144.738281 183.488281 144.113281 183.753906 143.472656 C 184.019531 142.832031 184.25 142.179688 184.453125 141.515625 C 184.652344 140.851562 184.820312 140.179688 184.957031 139.496094 C 185.089844 138.816406 185.191406 138.132812 185.261719 137.441406 C 185.328125 136.75 185.363281 136.058594 185.363281 135.363281 C 185.363281 134.671875 185.328125 133.980469 185.257812 133.289062 C 185.191406 132.597656 185.085938 131.914062 184.953125 131.234375 C 184.816406 130.554688 184.648438 129.882812 184.445312 129.21875 C 184.246094 128.554688 184.011719 127.902344 183.746094 127.261719 C 183.480469 126.621094 183.1875 125.996094 182.859375 125.382812 C 182.53125 124.773438 182.175781 124.179688 181.792969 123.601562 C 181.410156 123.023438 180.996094 122.46875 180.558594 121.933594 C 180.117188 121.398438 179.65625 120.882812 179.164062 120.394531 C 178.675781 119.902344 178.164062 119.4375 177.628906 118.996094 C 177.09375 118.558594 176.539062 118.144531 175.964844 117.757812 C 175.390625 117.375 174.796875 117.015625 174.1875 116.691406 C 173.574219 116.363281 172.953125 116.066406 172.3125 115.800781 C 171.671875 115.535156 171.023438 115.300781 170.359375 115.097656 C 169.699219 114.898438 169.027344 114.726562 168.351562 114.59375 C 167.671875 114.457031 166.988281 114.355469 166.300781 114.285156 C 165.609375 114.21875 164.921875 114.183594 164.230469 114.179688 Z M 164.230469 152.207031 C 163.679688 152.207031 163.128906 152.179688 162.582031 152.125 C 162.035156 152.074219 161.492188 151.992188 160.949219 151.882812 C 160.410156 151.777344 159.878906 151.644531 159.351562 151.484375 C 158.824219 151.324219 158.308594 151.136719 157.796875 150.925781 C 157.289062 150.714844 156.792969 150.480469 156.308594 150.21875 C 155.824219 149.957031 155.351562 149.675781 154.894531 149.371094 C 154.4375 149.0625 153.996094 148.734375 153.570312 148.382812 C 153.144531 148.035156 152.734375 147.664062 152.347656 147.273438 C 151.957031 146.882812 151.589844 146.476562 151.238281 146.050781 C 150.890625 145.625 150.5625 145.179688 150.257812 144.722656 C 149.953125 144.261719 149.667969 143.789062 149.410156 143.304688 C 149.148438 142.816406 148.914062 142.320312 148.703125 141.808594 C 148.492188 141.300781 148.308594 140.78125 148.148438 140.253906 C 147.988281 139.726562 147.855469 139.191406 147.75 138.652344 C 147.640625 138.109375 147.558594 137.566406 147.507812 137.015625 C 147.453125 136.464844 147.425781 135.917969 147.425781 135.363281 C 147.425781 134.8125 147.453125 134.261719 147.507812 133.714844 C 147.558594 133.164062 147.640625 132.621094 147.75 132.078125 C 147.855469 131.539062 147.988281 131.003906 148.148438 130.476562 C 148.308594 129.949219 148.492188 129.429688 148.703125 128.917969 C 148.914062 128.410156 149.148438 127.910156 149.410156 127.425781 C 149.667969 126.9375 149.953125 126.464844 150.257812 126.007812 C 150.5625 125.546875 150.890625 125.105469 151.238281 124.679688 C 151.589844 124.253906 151.957031 123.84375 152.347656 123.453125 C 152.734375 123.066406 153.144531 122.695312 153.570312 122.34375 C 153.996094 121.996094 154.4375 121.667969 154.894531 121.359375 C 155.351562 121.054688 155.824219 120.769531 156.308594 120.511719 C 156.792969 120.25 157.289062 120.015625 157.796875 119.804688 C 158.308594 119.59375 158.824219 119.40625 159.351562 119.246094 C 159.878906 119.085938 160.410156 118.953125 160.949219 118.84375 C 161.492188 118.738281 162.035156 118.65625 162.582031 118.601562 C 163.128906 118.546875 163.679688 118.523438 164.230469 118.523438 C 164.777344 118.523438 165.328125 118.546875 165.875 118.601562 C 166.421875 118.65625 166.96875 118.738281 167.507812 118.84375 C 168.046875 118.953125 168.578125 119.085938 169.105469 119.246094 C 169.632812 119.40625 170.152344 119.59375 170.660156 119.804688 C 171.167969 120.015625 171.664062 120.25 172.148438 120.511719 C 172.636719 120.769531 173.105469 121.054688 173.5625 121.359375 C 174.023438 121.667969 174.464844 121.996094 174.886719 122.34375 C 175.3125 122.695312 175.722656 123.066406 176.109375 123.453125 C 176.5 123.84375 176.867188 124.253906 177.21875 124.679688 C 177.566406 125.105469 177.894531 125.546875 178.199219 126.007812 C 178.507812 126.464844 178.789062 126.9375 179.046875 127.425781 C 179.308594 127.910156 179.542969 128.410156 179.753906 128.917969 C 179.964844 129.429688 180.148438 129.949219 180.308594 130.476562 C 180.46875 131.003906 180.601562 131.539062 180.710938 132.078125 C 180.816406 132.621094 180.898438 133.164062 180.949219 133.714844 C 181.003906 134.261719 181.03125 134.8125 181.03125 135.363281 C 181.03125 135.917969 181.003906 136.464844 180.949219 137.015625 C 180.894531 137.5625 180.8125 138.109375 180.707031 138.648438 C 180.597656 139.191406 180.464844 139.722656 180.304688 140.253906 C 180.144531 140.78125 179.957031 141.296875 179.746094 141.808594 C 179.535156 142.316406 179.300781 142.816406 179.042969 143.300781 C 178.78125 143.789062 178.5 144.257812 178.195312 144.71875 C 177.886719 145.175781 177.5625 145.617188 177.210938 146.046875 C 176.863281 146.472656 176.492188 146.878906 176.105469 147.269531 C 175.714844 147.660156 175.308594 148.027344 174.882812 148.378906 C 174.457031 148.730469 174.015625 149.058594 173.558594 149.363281 C 173.101562 149.671875 172.632812 149.953125 172.144531 150.214844 C 171.660156 150.472656 171.164062 150.710938 170.65625 150.921875 C 170.148438 151.132812 169.628906 151.316406 169.105469 151.476562 C 168.578125 151.640625 168.046875 151.773438 167.503906 151.882812 C 166.964844 151.988281 166.421875 152.070312 165.875 152.125 C 165.328125 152.179688 164.777344 152.207031 164.230469 152.207031 Z M 258.164062 185.960938 L 245.648438 164.242188 C 245.457031 163.90625 245.191406 163.640625 244.855469 163.449219 C 244.519531 163.253906 244.160156 163.15625 243.773438 163.15625 C 243.386719 163.15625 243.027344 163.253906 242.691406 163.449219 C 242.355469 163.640625 242.09375 163.90625 241.898438 164.242188 L 235.648438 175.101562 L 234.214844 177.589844 L 209.644531 177.589844 L 204.09375 172.027344 C 210.847656 162.054688 215.234375 152.332031 217.179688 142.980469 C 217.554688 141.179688 217.839844 139.363281 218.035156 137.535156 L 232.160156 137.535156 L 232.160156 144.835938 C 232.160156 145.125 232.214844 145.402344 232.324219 145.667969 C 232.433594 145.933594 232.589844 146.167969 232.792969 146.371094 C 232.996094 146.574219 233.230469 146.730469 233.496094 146.839844 C 233.761719 146.949219 234.035156 147.007812 234.324219 147.007812 L 253.230469 147.007812 C 253.519531 147.007812 253.792969 146.949219 254.058594 146.839844 C 254.324219 146.730469 254.558594 146.574219 254.761719 146.371094 C 254.964844 146.167969 255.121094 145.933594 255.230469 145.667969 C 255.339844 145.402344 255.394531 145.125 255.394531 144.835938 L 255.394531 125.894531 C 255.394531 125.605469 255.339844 125.328125 255.230469 125.0625 C 255.121094 124.796875 254.964844 124.5625 254.761719 124.359375 C 254.558594 124.15625 254.324219 124 254.058594 123.890625 C 253.792969 123.777344 253.519531 123.722656 253.230469 123.722656 L 234.324219 123.722656 C 234.039062 123.722656 233.761719 123.777344 233.496094 123.890625 C 233.230469 124 232.996094 124.15625 232.792969 124.359375 C 232.589844 124.5625 232.433594 124.796875 232.324219 125.0625 C 232.214844 125.328125 232.160156 125.605469 232.160156 125.894531 L 232.160156 133.195312 L 218.304688 133.195312 C 218.472656 124.632812 216.410156 116.558594 212.1875 109.453125 C 209.867188 105.585938 207.050781 102.117188 203.746094 99.054688 L 209.644531 93.140625 L 232.363281 93.140625 C 232.453125 93.609375 232.570312 94.070312 232.71875 94.527344 C 232.863281 94.984375 233.035156 95.425781 233.238281 95.863281 C 233.4375 96.296875 233.664062 96.714844 233.914062 97.121094 C 234.167969 97.527344 234.445312 97.917969 234.742188 98.289062 C 235.042969 98.660156 235.363281 99.011719 235.707031 99.34375 C 236.050781 99.675781 236.414062 99.988281 236.796875 100.273438 C 237.175781 100.5625 237.574219 100.824219 237.988281 101.0625 C 238.402344 101.300781 238.828125 101.511719 239.269531 101.699219 C 239.707031 101.882812 240.15625 102.042969 240.617188 102.171875 C 241.074219 102.304688 241.539062 102.402344 242.011719 102.476562 C 242.484375 102.550781 242.957031 102.59375 243.433594 102.605469 C 243.910156 102.621094 244.386719 102.605469 244.863281 102.5625 C 245.335938 102.515625 245.808594 102.441406 246.273438 102.339844 C 246.742188 102.238281 247.199219 102.105469 247.648438 101.945312 C 248.097656 101.785156 248.535156 101.601562 248.964844 101.386719 C 249.390625 101.171875 249.800781 100.933594 250.199219 100.667969 C 250.597656 100.40625 250.976562 100.117188 251.339844 99.804688 C 251.699219 99.492188 252.042969 99.160156 252.363281 98.808594 C 252.683594 98.453125 252.984375 98.082031 253.257812 97.691406 C 253.535156 97.300781 253.785156 96.894531 254.011719 96.472656 C 254.234375 96.050781 254.433594 95.617188 254.605469 95.171875 C 254.78125 94.726562 254.921875 94.269531 255.039062 93.808594 C 255.15625 93.34375 255.242188 92.875 255.300781 92.398438 C 255.359375 91.925781 255.390625 91.449219 255.390625 90.96875 C 255.390625 90.492188 255.359375 90.015625 255.300781 89.539062 C 255.242188 89.066406 255.15625 88.597656 255.039062 88.132812 C 254.921875 87.667969 254.78125 87.214844 254.605469 86.769531 C 254.433594 86.320312 254.234375 85.886719 254.011719 85.46875 C 253.785156 85.046875 253.535156 84.640625 253.257812 84.25 C 252.984375 83.859375 252.683594 83.488281 252.363281 83.132812 C 252.042969 82.777344 251.699219 82.445312 251.339844 82.136719 C 250.976562 81.824219 250.597656 81.535156 250.199219 81.269531 C 249.800781 81.007812 249.390625 80.765625 248.964844 80.554688 C 248.535156 80.339844 248.097656 80.152344 247.648438 79.996094 C 247.199219 79.835938 246.742188 79.703125 246.273438 79.601562 C 245.808594 79.496094 245.335938 79.425781 244.863281 79.378906 C 244.386719 79.335938 243.910156 79.320312 243.433594 79.332031 C 242.957031 79.347656 242.484375 79.390625 242.011719 79.464844 C 241.539062 79.535156 241.074219 79.636719 240.617188 79.765625 C 240.15625 79.898438 239.707031 80.054688 239.269531 80.242188 C 238.828125 80.425781 238.402344 80.636719 237.988281 80.878906 C 237.574219 81.117188 237.175781 81.378906 236.796875 81.664062 C 236.414062 81.953125 236.050781 82.261719 235.707031 82.59375 C 235.363281 82.925781 235.042969 83.28125 234.742188 83.652344 C 234.445312 84.023438 234.167969 84.414062 233.914062 84.820312 C 233.664062 85.222656 233.4375 85.644531 233.238281 86.078125 C 233.035156 86.511719 232.863281 86.957031 232.71875 87.414062 C 232.570312 87.867188 232.453125 88.332031 232.363281 88.800781 L 208.746094 88.800781 C 208.148438 88.800781 207.640625 89.011719 207.214844 89.4375 L 200.449219 96.21875 C 195.4375 92.289062 189.945312 89.234375 183.964844 87.054688 C 172.136719 82.679688 159.300781 81.746094 147.816406 84.425781 C 128.171875 89.007812 115.984375 103.144531 114.378906 123.214844 C 113.636719 132.371094 111.429688 140.050781 107.21875 148.121094 L 100.382812 161.246094 C 100.296875 161.410156 100.234375 161.585938 100.191406 161.765625 C 100.152344 161.949219 100.132812 162.132812 100.140625 162.320312 C 100.144531 162.503906 100.175781 162.6875 100.226562 162.867188 C 100.28125 163.046875 100.355469 163.214844 100.449219 163.375 C 100.546875 163.535156 100.664062 163.679688 100.796875 163.808594 C 100.929688 163.9375 101.078125 164.050781 101.238281 164.140625 C 101.402344 164.234375 101.574219 164.300781 101.753906 164.347656 C 101.933594 164.398438 102.117188 164.421875 102.300781 164.421875 L 114.109375 164.421875 L 117.015625 184.59375 C 117.09375 185.160156 117.21875 185.71875 117.398438 186.261719 C 117.574219 186.804688 117.800781 187.328125 118.074219 187.832031 C 118.34375 188.335938 118.660156 188.808594 119.019531 189.257812 C 119.375 189.703125 119.769531 190.113281 120.203125 190.488281 C 120.632812 190.863281 121.097656 191.195312 121.585938 191.484375 C 122.078125 191.777344 122.59375 192.023438 123.128906 192.21875 C 123.664062 192.417969 124.214844 192.566406 124.777344 192.664062 C 125.339844 192.765625 125.90625 192.8125 126.476562 192.808594 L 137.503906 192.808594 C 140.773438 192.808594 144.472656 194.710938 144.898438 198.230469 L 147.25 217.921875 C 147.28125 218.1875 147.359375 218.433594 147.480469 218.671875 C 147.601562 218.90625 147.761719 219.113281 147.960938 219.289062 C 148.160156 219.464844 148.382812 219.597656 148.628906 219.691406 C 148.878906 219.789062 149.132812 219.835938 149.398438 219.835938 L 191.175781 219.835938 C 191.460938 219.835938 191.738281 219.78125 192.003906 219.667969 C 192.265625 219.558594 192.5 219.402344 192.703125 219.199219 C 192.90625 218.996094 193.0625 218.761719 193.171875 218.496094 C 193.285156 218.230469 193.339844 217.953125 193.339844 217.664062 L 193.339844 185.871094 C 196.347656 182.433594 199.089844 179.019531 201.5625 175.628906 L 207.214844 181.296875 C 207.640625 181.71875 208.148438 181.929688 208.746094 181.933594 L 231.710938 181.933594 L 229.390625 185.960938 C 229.199219 186.296875 229.101562 186.660156 229.101562 187.046875 C 229.101562 187.433594 229.199219 187.796875 229.390625 188.128906 C 229.585938 188.464844 229.847656 188.730469 230.183594 188.925781 C 230.519531 189.117188 230.878906 189.214844 231.265625 189.214844 L 256.292969 189.214844 C 256.679688 189.214844 257.039062 189.117188 257.375 188.925781 C 257.707031 188.730469 257.972656 188.464844 258.164062 188.128906 C 258.359375 187.796875 258.457031 187.433594 258.457031 187.046875 C 258.457031 186.660156 258.359375 186.296875 258.164062 185.960938 Z M 236.488281 128.0625 L 251.066406 128.0625 L 251.066406 142.667969 L 236.488281 142.667969 Z M 243.773438 83.667969 C 244.253906 83.667969 244.726562 83.714844 245.195312 83.808594 C 245.664062 83.902344 246.121094 84.039062 246.5625 84.222656 C 247.003906 84.40625 247.421875 84.632812 247.820312 84.898438 C 248.21875 85.164062 248.585938 85.46875 248.925781 85.804688 C 249.261719 86.144531 249.5625 86.515625 249.828125 86.914062 C 250.097656 87.3125 250.320312 87.730469 250.503906 88.175781 C 250.6875 88.617188 250.824219 89.074219 250.917969 89.542969 C 251.011719 90.015625 251.058594 90.488281 251.058594 90.96875 C 251.058594 91.449219 251.011719 91.921875 250.917969 92.394531 C 250.824219 92.863281 250.6875 93.320312 250.503906 93.761719 C 250.320312 94.207031 250.097656 94.625 249.832031 95.023438 C 249.5625 95.421875 249.261719 95.792969 248.925781 96.132812 C 248.585938 96.46875 248.21875 96.773438 247.820312 97.039062 C 247.421875 97.304688 247.003906 97.53125 246.5625 97.714844 C 246.121094 97.898438 245.664062 98.035156 245.195312 98.128906 C 244.726562 98.222656 244.253906 98.269531 243.773438 98.269531 C 243.296875 98.269531 242.820312 98.222656 242.351562 98.128906 C 241.882812 98.035156 241.429688 97.898438 240.988281 97.714844 C 240.542969 97.53125 240.125 97.304688 239.726562 97.039062 C 239.328125 96.773438 238.960938 96.46875 238.625 96.132812 C 238.285156 95.792969 237.984375 95.425781 237.71875 95.023438 C 237.453125 94.625 237.226562 94.207031 237.042969 93.761719 C 236.859375 93.320312 236.722656 92.863281 236.628906 92.394531 C 236.535156 91.921875 236.488281 91.449219 236.488281 90.96875 C 236.492188 90.488281 236.539062 90.015625 236.632812 89.546875 C 236.722656 89.074219 236.863281 88.617188 237.046875 88.175781 C 237.230469 87.734375 237.453125 87.3125 237.71875 86.914062 C 237.984375 86.515625 238.289062 86.148438 238.625 85.808594 C 238.964844 85.46875 239.332031 85.167969 239.730469 84.902344 C 240.125 84.632812 240.546875 84.410156 240.988281 84.226562 C 241.429688 84.042969 241.882812 83.902344 242.351562 83.808594 C 242.820312 83.714844 243.296875 83.667969 243.773438 83.667969 Z M 189.554688 183.609375 C 189.191406 184.023438 189.007812 184.5 189.007812 185.050781 L 189.007812 215.492188 L 151.320312 215.492188 L 149.199219 197.714844 C 148.5625 192.441406 143.535156 188.46875 137.503906 188.46875 L 126.476562 188.46875 C 125.847656 188.472656 125.234375 188.367188 124.644531 188.148438 C 124.054688 187.929688 123.519531 187.613281 123.042969 187.199219 C 122.566406 186.785156 122.179688 186.300781 121.878906 185.746094 C 121.578125 185.191406 121.386719 184.601562 121.300781 183.976562 L 118.128906 161.941406 C 118.089844 161.683594 118.007812 161.4375 117.882812 161.210938 C 117.757812 160.980469 117.597656 160.78125 117.402344 160.609375 C 117.207031 160.4375 116.984375 160.308594 116.742188 160.21875 C 116.496094 160.125 116.246094 160.082031 115.984375 160.082031 L 105.875 160.082031 L 111.058594 150.132812 C 115.550781 141.523438 117.902344 133.332031 118.695312 123.566406 C 120.140625 105.503906 131.109375 92.777344 148.796875 88.65625 C 165.605469 84.734375 184.363281 89.292969 197.34375 99.332031 L 193.242188 103.441406 C 193.042969 103.644531 192.886719 103.878906 192.777344 104.144531 C 192.667969 104.410156 192.613281 104.6875 192.613281 104.972656 C 192.613281 105.261719 192.667969 105.539062 192.777344 105.804688 C 192.886719 106.070312 193.042969 106.304688 193.246094 106.507812 C 193.449219 106.710938 193.683594 106.867188 193.949219 106.976562 C 194.210938 107.085938 194.488281 107.144531 194.773438 107.144531 C 195.0625 107.144531 195.335938 107.089844 195.601562 106.980469 C 195.867188 106.867188 196.101562 106.710938 196.304688 106.507812 L 200.664062 102.140625 C 203.726562 104.9375 206.328125 108.117188 208.46875 111.675781 C 212.359375 118.222656 214.179688 125.457031 213.988281 133.195312 L 206.8125 133.195312 C 206.523438 133.195312 206.246094 133.25 205.980469 133.359375 C 205.71875 133.472656 205.484375 133.628906 205.28125 133.832031 C 205.078125 134.035156 204.921875 134.269531 204.8125 134.535156 C 204.699219 134.800781 204.644531 135.078125 204.644531 135.367188 C 204.644531 135.652344 204.699219 135.929688 204.8125 136.195312 C 204.921875 136.460938 205.078125 136.695312 205.28125 136.898438 C 205.484375 137.101562 205.71875 137.261719 205.980469 137.371094 C 206.246094 137.480469 206.523438 137.535156 206.8125 137.535156 L 213.675781 137.535156 C 212.507812 147.371094 208.242188 157.9375 200.964844 168.890625 L 196.308594 164.222656 C 196.105469 164.019531 195.871094 163.859375 195.605469 163.75 C 195.339844 163.640625 195.066406 163.585938 194.777344 163.585938 C 194.492188 163.585938 194.214844 163.640625 193.949219 163.75 C 193.683594 163.859375 193.449219 164.019531 193.246094 164.222656 C 193.042969 164.425781 192.886719 164.660156 192.777344 164.925781 C 192.667969 165.191406 192.613281 165.46875 192.613281 165.753906 C 192.613281 166.042969 192.667969 166.320312 192.777344 166.585938 C 192.886719 166.851562 193.042969 167.085938 193.246094 167.289062 L 198.457031 172.511719 C 195.816406 176.179688 192.851562 179.878906 189.554688 183.609375 Z M 235.015625 184.875 L 243.773438 169.664062 L 252.539062 184.875 Z M 235.015625 184.875 " fill-opacity="1" fill-rule="nonzero"/></g><g fill="#ffffff" fill-opacity="1"><g transform="translate(54.516675, 295.984728)"><g><path d="M 2.78125 0.015625 L 2.78125 -21.96875 L 8.5625 -21.96875 L 8.5625 -4.609375 L 23.53125 -4.609375 L 23.53125 0.015625 Z M 2.78125 0.015625 "/></g></g></g><g fill="#ffffff" fill-opacity="1"><g transform="translate(78.932998, 295.984728)"><g><path d="M 12.046875 0.53125 C 10.890625 0.53125 9.757812 0.421875 8.65625 0.203125 C 7.550781 -0.00390625 6.515625 -0.328125 5.546875 -0.765625 C 4.585938 -1.210938 3.742188 -1.769531 3.015625 -2.4375 C 2.285156 -3.113281 1.710938 -3.90625 1.296875 -4.8125 C 0.878906 -5.71875 0.671875 -6.742188 0.671875 -7.890625 C 0.671875 -9.035156 0.878906 -10.0625 1.296875 -10.96875 C 1.710938 -11.875 2.285156 -12.660156 3.015625 -13.328125 C 3.753906 -14.003906 4.601562 -14.5625 5.5625 -15 C 6.53125 -15.4375 7.566406 -15.765625 8.671875 -15.984375 C 9.773438 -16.203125 10.898438 -16.3125 12.046875 -16.3125 C 13.191406 -16.3125 14.316406 -16.203125 15.421875 -15.984375 C 16.523438 -15.765625 17.554688 -15.429688 18.515625 -14.984375 C 19.484375 -14.546875 20.335938 -13.992188 21.078125 -13.328125 C 21.816406 -12.660156 22.390625 -11.875 22.796875 -10.96875 C 23.210938 -10.070312 23.421875 -9.054688 23.421875 -7.921875 C 23.421875 -6.773438 23.210938 -5.742188 22.796875 -4.828125 C 22.390625 -3.921875 21.820312 -3.128906 21.09375 -2.453125 C 20.363281 -1.773438 19.515625 -1.21875 18.546875 -0.78125 C 17.585938 -0.34375 16.550781 -0.015625 15.4375 0.203125 C 14.332031 0.421875 13.203125 0.53125 12.046875 0.53125 Z M 12.046875 -3.4375 C 13.097656 -3.4375 14.050781 -3.609375 14.90625 -3.953125 C 15.769531 -4.296875 16.457031 -4.800781 16.96875 -5.46875 C 17.488281 -6.132812 17.75 -6.945312 17.75 -7.90625 C 17.75 -8.851562 17.488281 -9.660156 16.96875 -10.328125 C 16.457031 -10.992188 15.769531 -11.5 14.90625 -11.84375 C 14.050781 -12.1875 13.097656 -12.359375 12.046875 -12.359375 C 10.992188 -12.359375 10.035156 -12.179688 9.171875 -11.828125 C 8.316406 -11.484375 7.632812 -10.976562 7.125 -10.3125 C 6.613281 -9.644531 6.359375 -8.835938 6.359375 -7.890625 C 6.359375 -6.941406 6.613281 -6.132812 7.125 -5.46875 C 7.632812 -4.8125 8.316406 -4.304688 9.171875 -3.953125 C 10.035156 -3.609375 10.992188 -3.4375 12.046875 -3.4375 Z M 12.046875 -3.4375 "/></g></g></g><g fill="#ffffff" fill-opacity="1"><g transform="translate(103.011697, 295.984728)"><g><path d="M 14.59375 -3.71875 C 16.132812 -3.75 17.421875 -3.679688 18.453125 -3.515625 C 19.492188 -3.347656 20.328125 -3.085938 20.953125 -2.734375 C 21.578125 -2.378906 22.023438 -1.9375 22.296875 -1.40625 C 22.578125 -0.875 22.71875 -0.257812 22.71875 0.4375 C 22.71875 1.351562 22.503906 2.140625 22.078125 2.796875 C 21.648438 3.453125 21.066406 3.988281 20.328125 4.40625 C 19.585938 4.832031 18.738281 5.164062 17.78125 5.40625 C 16.832031 5.65625 15.828125 5.832031 14.765625 5.9375 C 13.710938 6.039062 12.660156 6.09375 11.609375 6.09375 C 9.359375 6.09375 7.515625 5.9375 6.078125 5.625 C 4.648438 5.3125 3.597656 4.878906 2.921875 4.328125 C 2.242188 3.785156 1.90625 3.164062 1.90625 2.46875 C 1.90625 2.125 1.992188 1.757812 2.171875 1.375 C 2.347656 0.988281 2.617188 0.628906 2.984375 0.296875 C 3.359375 -0.0351562 3.832031 -0.300781 4.40625 -0.5 C 3.582031 -0.675781 2.945312 -0.921875 2.5 -1.234375 C 2.0625 -1.554688 1.753906 -1.925781 1.578125 -2.34375 C 1.398438 -2.769531 1.3125 -3.21875 1.3125 -3.6875 C 1.3125 -4.257812 1.445312 -4.753906 1.71875 -5.171875 C 2 -5.585938 2.363281 -5.9375 2.8125 -6.21875 C 3.269531 -6.5 3.769531 -6.726562 4.3125 -6.90625 C 4.851562 -7.082031 5.398438 -7.207031 5.953125 -7.28125 C 5.097656 -7.78125 4.476562 -8.367188 4.09375 -9.046875 C 3.71875 -9.722656 3.53125 -10.429688 3.53125 -11.171875 C 3.53125 -12.222656 3.84375 -13.132812 4.46875 -13.90625 C 5.09375 -14.675781 6.046875 -15.269531 7.328125 -15.6875 C 8.609375 -16.101562 10.25 -16.3125 12.25 -16.3125 C 12.957031 -16.3125 13.617188 -16.285156 14.234375 -16.234375 C 14.859375 -16.191406 15.4375 -16.132812 15.96875 -16.0625 C 16.414062 -16.082031 16.796875 -16.269531 17.109375 -16.625 C 17.429688 -16.988281 17.59375 -17.4375 17.59375 -17.96875 C 17.59375 -18.226562 17.550781 -18.523438 17.46875 -18.859375 C 17.394531 -19.203125 17.3125 -19.519531 17.21875 -19.8125 C 17.132812 -20.101562 17.070312 -20.300781 17.03125 -20.40625 L 21.015625 -20.15625 C 21.066406 -20.082031 21.132812 -19.945312 21.21875 -19.75 C 21.3125 -19.5625 21.390625 -19.328125 21.453125 -19.046875 C 21.523438 -18.773438 21.5625 -18.484375 21.5625 -18.171875 C 21.5625 -17.503906 21.300781 -16.910156 20.78125 -16.390625 C 20.269531 -15.878906 19.53125 -15.535156 18.5625 -15.359375 C 19.59375 -14.941406 20.347656 -14.378906 20.828125 -13.671875 C 21.316406 -12.972656 21.5625 -12.140625 21.5625 -11.171875 C 21.5625 -10.054688 21.207031 -9.109375 20.5 -8.328125 C 19.789062 -7.546875 18.757812 -6.945312 17.40625 -6.53125 C 16.050781 -6.113281 14.421875 -5.90625 12.515625 -5.90625 C 12.097656 -5.90625 11.597656 -5.894531 11.015625 -5.875 C 10.441406 -5.863281 9.84375 -5.832031 9.21875 -5.78125 C 8.601562 -5.738281 8.023438 -5.671875 7.484375 -5.578125 C 6.953125 -5.492188 6.515625 -5.367188 6.171875 -5.203125 C 5.835938 -5.046875 5.671875 -4.847656 5.671875 -4.609375 C 5.671875 -4.253906 5.828125 -4 6.140625 -3.84375 C 6.460938 -3.695312 6.984375 -3.632812 7.703125 -3.65625 Z M 12.5 -13.46875 C 11.664062 -13.46875 10.988281 -13.351562 10.46875 -13.125 C 9.945312 -12.90625 9.5625 -12.625 9.3125 -12.28125 C 9.070312 -11.9375 8.953125 -11.554688 8.953125 -11.140625 C 8.953125 -10.734375 9.070312 -10.347656 9.3125 -9.984375 C 9.5625 -9.628906 9.945312 -9.335938 10.46875 -9.109375 C 10.988281 -8.890625 11.664062 -8.78125 12.5 -8.78125 C 13.320312 -8.78125 14 -8.890625 14.53125 -9.109375 C 15.070312 -9.328125 15.472656 -9.617188 15.734375 -9.984375 C 16.003906 -10.347656 16.140625 -10.734375 16.140625 -11.140625 C 16.140625 -11.546875 16.007812 -11.921875 15.75 -12.265625 C 15.488281 -12.617188 15.09375 -12.90625 14.5625 -13.125 C 14.03125 -13.351562 13.34375 -13.46875 12.5 -13.46875 Z M 11.796875 3.109375 C 12.816406 3.109375 13.65625 3.054688 14.3125 2.953125 C 14.96875 2.859375 15.484375 2.71875 15.859375 2.53125 C 16.242188 2.34375 16.515625 2.132812 16.671875 1.90625 C 16.828125 1.675781 16.90625 1.441406 16.90625 1.203125 C 16.90625 0.878906 16.804688 0.601562 16.609375 0.375 C 16.410156 0.144531 16.039062 -0.03125 15.5 -0.15625 C 14.96875 -0.289062 14.1875 -0.347656 13.15625 -0.328125 L 7.875 -0.25 L 7.234375 -0.25 C 6.847656 -0.0625 6.59375 0.203125 6.46875 0.546875 C 6.34375 0.898438 6.28125 1.226562 6.28125 1.53125 C 6.28125 1.863281 6.445312 2.148438 6.78125 2.390625 C 7.113281 2.628906 7.679688 2.804688 8.484375 2.921875 C 9.285156 3.046875 10.390625 3.109375 11.796875 3.109375 Z M 11.796875 3.109375 "/></g></g></g><g fill="#ffffff" fill-opacity="1"><g transform="translate(126.36911, 295.984728)"><g><path d="M 2.640625 -17.5625 L 2.640625 -21.984375 L 8.296875 -21.984375 L 8.296875 -17.5625 Z M 2.71875 0 L 2.71875 -15.75 L 8.234375 -15.75 L 8.234375 0 Z M 2.71875 0 "/></g></g></g><g fill="#ffffff" fill-opacity="1"><g transform="translate(137.32653, 295.984728)"><g><path d="M 11.796875 0.53125 C 10.285156 0.53125 8.859375 0.34375 7.515625 -0.03125 C 6.171875 -0.40625 4.984375 -0.953125 3.953125 -1.671875 C 2.929688 -2.398438 2.128906 -3.28125 1.546875 -4.3125 C 0.960938 -5.34375 0.671875 -6.519531 0.671875 -7.84375 C 0.671875 -9.132812 0.9375 -10.296875 1.46875 -11.328125 C 2.007812 -12.367188 2.765625 -13.257812 3.734375 -14 C 4.710938 -14.75 5.851562 -15.320312 7.15625 -15.71875 C 8.46875 -16.113281 9.882812 -16.3125 11.40625 -16.3125 C 12.28125 -16.3125 13.15625 -16.226562 14.03125 -16.0625 C 14.914062 -15.894531 15.757812 -15.640625 16.5625 -15.296875 C 17.375 -14.960938 18.101562 -14.539062 18.75 -14.03125 C 19.40625 -13.519531 19.953125 -12.921875 20.390625 -12.234375 C 20.835938 -11.546875 21.140625 -10.773438 21.296875 -9.921875 L 17.046875 -8.8125 L 16.859375 -8.859375 C 16.671875 -9.546875 16.347656 -10.148438 15.890625 -10.671875 C 15.429688 -11.203125 14.84375 -11.613281 14.125 -11.90625 C 13.414062 -12.207031 12.59375 -12.359375 11.65625 -12.359375 C 10.65625 -12.359375 9.753906 -12.179688 8.953125 -11.828125 C 8.160156 -11.472656 7.53125 -10.957031 7.0625 -10.28125 C 6.59375 -9.613281 6.359375 -8.800781 6.359375 -7.84375 C 6.359375 -6.976562 6.59375 -6.21875 7.0625 -5.5625 C 7.53125 -4.90625 8.203125 -4.382812 9.078125 -4 C 9.953125 -3.625 10.984375 -3.4375 12.171875 -3.4375 C 12.898438 -3.4375 13.601562 -3.515625 14.28125 -3.671875 C 14.957031 -3.835938 15.566406 -4.085938 16.109375 -4.421875 C 16.660156 -4.753906 17.082031 -5.175781 17.375 -5.6875 L 17.46875 -5.6875 L 21.359375 -3.71875 C 21.015625 -3.132812 20.539062 -2.585938 19.9375 -2.078125 C 19.332031 -1.566406 18.617188 -1.113281 17.796875 -0.71875 C 16.972656 -0.332031 16.054688 -0.03125 15.046875 0.1875 C 14.035156 0.414062 12.953125 0.53125 11.796875 0.53125 Z M 11.796875 0.53125 "/></g></g></g><g fill="#ffffff" fill-opacity="1"><g transform="translate(159.425527, 295.984728)"><g/></g></g><g fill="#ffffff" fill-opacity="1"><g transform="translate(170.367601, 295.984728)"><g><path d="M 10.96875 0.625 C 8.65625 0.625 6.738281 0.359375 5.21875 -0.171875 C 3.707031 -0.710938 2.570312 -1.460938 1.8125 -2.421875 C 1.0625 -3.378906 0.6875 -4.484375 0.6875 -5.734375 C 0.6875 -8.421875 2.660156 -10.507812 6.609375 -12 C 5.648438 -12.78125 4.875 -13.597656 4.28125 -14.453125 C 3.695312 -15.304688 3.40625 -16.257812 3.40625 -17.3125 C 3.40625 -18 3.554688 -18.613281 3.859375 -19.15625 C 4.160156 -19.695312 4.570312 -20.175781 5.09375 -20.59375 C 5.613281 -21.007812 6.21875 -21.351562 6.90625 -21.625 C 7.59375 -21.894531 8.320312 -22.097656 9.09375 -22.234375 C 9.875 -22.367188 10.664062 -22.4375 11.46875 -22.4375 C 12.425781 -22.4375 13.367188 -22.335938 14.296875 -22.140625 C 15.234375 -21.941406 16.078125 -21.632812 16.828125 -21.21875 C 17.578125 -20.800781 18.175781 -20.285156 18.625 -19.671875 C 19.070312 -19.054688 19.296875 -18.320312 19.296875 -17.46875 C 19.296875 -16.800781 19.140625 -16.164062 18.828125 -15.5625 C 18.523438 -14.957031 18.109375 -14.390625 17.578125 -13.859375 C 17.046875 -13.335938 16.441406 -12.867188 15.765625 -12.453125 C 15.085938 -12.035156 14.375 -11.679688 13.625 -11.390625 C 14.65625 -10.566406 15.664062 -9.753906 16.65625 -8.953125 C 17.644531 -8.160156 18.640625 -7.359375 19.640625 -6.546875 C 20.179688 -7.191406 20.625 -7.941406 20.96875 -8.796875 C 21.3125 -9.660156 21.539062 -10.632812 21.65625 -11.71875 L 25.875 -11.359375 C 25.71875 -9.878906 25.347656 -8.554688 24.765625 -7.390625 C 24.179688 -6.222656 23.5 -5.1875 22.71875 -4.28125 C 22.976562 -4.019531 23.285156 -3.78125 23.640625 -3.5625 C 24.003906 -3.34375 24.363281 -3.175781 24.71875 -3.0625 C 25.070312 -2.945312 25.347656 -2.890625 25.546875 -2.890625 L 25.578125 -0.0625 C 24.160156 -0.0390625 22.976562 -0.175781 22.03125 -0.46875 C 21.09375 -0.757812 20.28125 -1.25 19.59375 -1.9375 C 18.59375 -1.101562 17.347656 -0.46875 15.859375 -0.03125 C 14.378906 0.40625 12.75 0.625 10.96875 0.625 Z M 11.078125 -13.3125 C 11.960938 -13.65625 12.660156 -14 13.171875 -14.34375 C 13.679688 -14.695312 14.046875 -15.085938 14.265625 -15.515625 C 14.492188 -15.941406 14.609375 -16.4375 14.609375 -17 C 14.609375 -17.71875 14.332031 -18.296875 13.78125 -18.734375 C 13.238281 -19.179688 12.46875 -19.40625 11.46875 -19.40625 C 10.5 -19.40625 9.71875 -19.1875 9.125 -18.75 C 8.539062 -18.320312 8.25 -17.738281 8.25 -17 C 8.25 -16.582031 8.335938 -16.195312 8.515625 -15.84375 C 8.691406 -15.5 8.988281 -15.128906 9.40625 -14.734375 C 9.820312 -14.347656 10.378906 -13.875 11.078125 -13.3125 Z M 11.453125 -2.8125 C 12.242188 -2.8125 13.023438 -2.90625 13.796875 -3.09375 C 14.578125 -3.28125 15.441406 -3.644531 16.390625 -4.1875 L 9.40625 -9.828125 C 8.300781 -9.347656 7.484375 -8.804688 6.953125 -8.203125 C 6.421875 -7.597656 6.15625 -6.941406 6.15625 -6.234375 C 6.15625 -5.597656 6.34375 -5.019531 6.71875 -4.5 C 7.09375 -3.976562 7.671875 -3.566406 8.453125 -3.265625 C 9.234375 -2.960938 10.234375 -2.8125 11.453125 -2.8125 Z M 11.453125 -2.8125 "/></g></g></g><g fill="#ffffff" fill-opacity="1"><g transform="translate(197.085903, 295.984728)"><g/></g></g><g fill="#ffffff" fill-opacity="1"><g transform="translate(208.027976, 295.984728)"><g><path d="M 2.78125 0 L 2.78125 -21.984375 L 17.734375 -21.984375 C 19.515625 -21.984375 21.03125 -21.785156 22.28125 -21.390625 C 23.539062 -21.003906 24.503906 -20.398438 25.171875 -19.578125 C 25.835938 -18.753906 26.171875 -17.6875 26.171875 -16.375 C 26.171875 -15.519531 26.003906 -14.800781 25.671875 -14.21875 C 25.335938 -13.644531 24.894531 -13.175781 24.34375 -12.8125 C 23.789062 -12.457031 23.175781 -12.1875 22.5 -12 C 21.832031 -11.8125 21.164062 -11.671875 20.5 -11.578125 L 20.5 -11.375 C 21.09375 -11.320312 21.691406 -11.234375 22.296875 -11.109375 C 22.910156 -10.984375 23.492188 -10.800781 24.046875 -10.5625 C 24.609375 -10.320312 25.101562 -10.007812 25.53125 -9.625 C 25.957031 -9.25 26.296875 -8.785156 26.546875 -8.234375 C 26.796875 -7.679688 26.921875 -7.023438 26.921875 -6.265625 C 26.921875 -5.035156 26.601562 -3.945312 25.96875 -3 C 25.332031 -2.0625 24.34375 -1.328125 23 -0.796875 C 21.65625 -0.265625 19.90625 0 17.75 0 Z M 8.390625 -12.8125 L 16.75 -12.8125 C 17.144531 -12.8125 17.546875 -12.84375 17.953125 -12.90625 C 18.359375 -12.976562 18.734375 -13.101562 19.078125 -13.28125 C 19.421875 -13.46875 19.691406 -13.726562 19.890625 -14.0625 C 20.097656 -14.40625 20.203125 -14.851562 20.203125 -15.40625 C 20.203125 -15.976562 20.097656 -16.441406 19.890625 -16.796875 C 19.691406 -17.148438 19.414062 -17.421875 19.0625 -17.609375 C 18.707031 -17.804688 18.316406 -17.9375 17.890625 -18 C 17.460938 -18.070312 17.023438 -18.109375 16.578125 -18.109375 L 8.390625 -18.109375 Z M 8.390625 -3.84375 L 16.296875 -3.84375 C 16.953125 -3.84375 17.554688 -3.875 18.109375 -3.9375 C 18.671875 -4 19.160156 -4.132812 19.578125 -4.34375 C 19.992188 -4.550781 20.316406 -4.847656 20.546875 -5.234375 C 20.773438 -5.628906 20.890625 -6.148438 20.890625 -6.796875 C 20.890625 -7.429688 20.773438 -7.9375 20.546875 -8.3125 C 20.316406 -8.6875 20.003906 -8.96875 19.609375 -9.15625 C 19.210938 -9.34375 18.765625 -9.46875 18.265625 -9.53125 C 17.765625 -9.59375 17.242188 -9.625 16.703125 -9.625 L 8.390625 -9.625 Z M 8.390625 -3.84375 "/></g></g></g><g fill="#ffffff" fill-opacity="1"><g transform="translate(236.265583, 295.984728)"><g><path d="M 2.71875 0 L 2.71875 -15.75 L 6.625 -15.75 L 7.703125 -11.421875 C 7.910156 -12.128906 8.238281 -12.78125 8.6875 -13.375 C 9.132812 -13.976562 9.664062 -14.5 10.28125 -14.9375 C 10.90625 -15.375 11.582031 -15.710938 12.3125 -15.953125 C 13.039062 -16.191406 13.78125 -16.3125 14.53125 -16.3125 C 15.800781 -16.3125 16.863281 -16.148438 17.71875 -15.828125 C 18.570312 -15.503906 19.253906 -15.054688 19.765625 -14.484375 C 20.285156 -13.921875 20.660156 -13.265625 20.890625 -12.515625 C 21.117188 -11.765625 21.234375 -10.957031 21.234375 -10.09375 C 21.242188 -9.226562 21.171875 -8.34375 21.015625 -7.4375 L 16.84375 -6.96875 C 16.875 -8.175781 16.789062 -9.171875 16.59375 -9.953125 C 16.394531 -10.734375 16.023438 -11.316406 15.484375 -11.703125 C 14.953125 -12.085938 14.1875 -12.28125 13.1875 -12.28125 C 12.382812 -12.28125 11.675781 -12.097656 11.0625 -11.734375 C 10.445312 -11.367188 9.929688 -10.890625 9.515625 -10.296875 C 9.097656 -9.703125 8.78125 -9.0625 8.5625 -8.375 C 8.34375 -7.6875 8.234375 -7.015625 8.234375 -6.359375 L 8.234375 0 Z M 2.71875 0 "/></g></g></g><g fill="#ffffff" fill-opacity="1"><g transform="translate(257.919532, 295.984728)"><g><path d="M 8.34375 0.53125 C 6.050781 0.53125 4.296875 0.101562 3.078125 -0.75 C 1.867188 -1.601562 1.265625 -2.796875 1.265625 -4.328125 C 1.265625 -5.222656 1.519531 -5.976562 2.03125 -6.59375 C 2.550781 -7.207031 3.273438 -7.710938 4.203125 -8.109375 C 5.140625 -8.503906 6.234375 -8.800781 7.484375 -9 C 8.742188 -9.207031 10.125 -9.335938 11.625 -9.390625 C 13.132812 -9.453125 14.707031 -9.457031 16.34375 -9.40625 L 16.34375 -9.65625 C 16.34375 -10.21875 16.191406 -10.734375 15.890625 -11.203125 C 15.585938 -11.671875 15.09375 -12.050781 14.40625 -12.34375 C 13.71875 -12.632812 12.789062 -12.78125 11.625 -12.78125 C 10.9375 -12.78125 10.25 -12.695312 9.5625 -12.53125 C 8.882812 -12.375 8.28125 -12.125 7.75 -11.78125 C 7.21875 -11.445312 6.820312 -11.015625 6.5625 -10.484375 L 2.375 -11.921875 C 2.894531 -12.804688 3.578125 -13.578125 4.421875 -14.234375 C 5.265625 -14.898438 6.328125 -15.410156 7.609375 -15.765625 C 8.890625 -16.128906 10.425781 -16.3125 12.21875 -16.3125 C 15.507812 -16.3125 17.9375 -15.664062 19.5 -14.375 C 21.0625 -13.082031 21.84375 -11.070312 21.84375 -8.34375 L 21.84375 -3.984375 C 21.84375 -3.472656 21.925781 -3.101562 22.09375 -2.875 C 22.257812 -2.644531 22.535156 -2.53125 22.921875 -2.53125 C 23.203125 -2.53125 23.476562 -2.5625 23.75 -2.625 C 24.03125 -2.6875 24.222656 -2.742188 24.328125 -2.796875 L 24.328125 -0.296875 C 24.203125 -0.234375 23.96875 -0.132812 23.625 0 C 23.289062 0.132812 22.882812 0.253906 22.40625 0.359375 C 21.925781 0.472656 21.421875 0.53125 20.890625 0.53125 C 19.648438 0.53125 18.703125 0.296875 18.046875 -0.171875 C 17.390625 -0.648438 17.050781 -1.460938 17.03125 -2.609375 C 17.03125 -2.953125 17.0625 -3.363281 17.125 -3.84375 C 17.1875 -4.332031 17.269531 -4.890625 17.375 -5.515625 C 17.132812 -4.390625 16.71875 -3.4375 16.125 -2.65625 C 15.539062 -1.882812 14.832031 -1.265625 14 -0.796875 C 13.175781 -0.328125 12.28125 0.0078125 11.3125 0.21875 C 10.351562 0.425781 9.363281 0.53125 8.34375 0.53125 Z M 10.140625 -2.453125 C 10.972656 -2.453125 11.757812 -2.585938 12.5 -2.859375 C 13.25 -3.128906 13.910156 -3.484375 14.484375 -3.921875 C 15.054688 -4.367188 15.507812 -4.851562 15.84375 -5.375 C 16.175781 -5.90625 16.34375 -6.429688 16.34375 -6.953125 C 16.132812 -6.960938 15.914062 -6.96875 15.6875 -6.96875 C 15.46875 -6.96875 15.25 -6.972656 15.03125 -6.984375 C 13.84375 -6.984375 12.753906 -6.945312 11.765625 -6.875 C 10.773438 -6.8125 9.921875 -6.691406 9.203125 -6.515625 C 8.492188 -6.335938 7.941406 -6.078125 7.546875 -5.734375 C 7.160156 -5.398438 6.96875 -4.960938 6.96875 -4.421875 C 6.96875 -4.097656 7.0625 -3.785156 7.25 -3.484375 C 7.445312 -3.179688 7.78125 -2.929688 8.25 -2.734375 C 8.71875 -2.546875 9.347656 -2.453125 10.140625 -2.453125 Z M 10.140625 -2.453125 "/></g></g></g><g fill="#ffffff" fill-opacity="1"><g transform="translate(283.087834, 295.984728)"><g><path d="M 2.640625 -17.5625 L 2.640625 -21.984375 L 8.296875 -21.984375 L 8.296875 -17.5625 Z M 2.71875 0 L 2.71875 -15.75 L 8.234375 -15.75 L 8.234375 0 Z M 2.71875 0 "/></g></g></g><g fill="#ffffff" fill-opacity="1"><g transform="translate(294.045254, 295.984728)"><g><path d="M 2.71875 0 L 2.71875 -15.75 L 6.515625 -15.75 L 7.359375 -11.171875 C 7.890625 -12.328125 8.601562 -13.285156 9.5 -14.046875 C 10.394531 -14.816406 11.390625 -15.382812 12.484375 -15.75 C 13.585938 -16.125 14.710938 -16.3125 15.859375 -16.3125 C 17.765625 -16.3125 19.304688 -15.941406 20.484375 -15.203125 C 21.660156 -14.472656 22.515625 -13.410156 23.046875 -12.015625 C 23.585938 -10.628906 23.859375 -8.945312 23.859375 -6.96875 L 23.859375 0 L 18.359375 0 L 18.359375 -6.296875 C 18.359375 -7.140625 18.285156 -7.925781 18.140625 -8.65625 C 18.003906 -9.382812 17.769531 -10.019531 17.4375 -10.5625 C 17.113281 -11.101562 16.65625 -11.523438 16.0625 -11.828125 C 15.476562 -12.128906 14.726562 -12.28125 13.8125 -12.28125 C 13.15625 -12.28125 12.5 -12.144531 11.84375 -11.875 C 11.1875 -11.601562 10.582031 -11.207031 10.03125 -10.6875 C 9.476562 -10.175781 9.039062 -9.550781 8.71875 -8.8125 C 8.394531 -8.082031 8.234375 -7.257812 8.234375 -6.34375 L 8.234375 0 Z M 2.71875 0 "/></g></g></g><g fill="#ffffff" fill-opacity="1"><g transform="translate(107.02839, 328.234726)"><g><path d="M 9.796875 0 L 9.796875 -17.375 L 0.4375 -17.375 L 0.4375 -21.984375 L 24.90625 -21.984375 L 24.90625 -17.375 L 15.5625 -17.375 L 15.5625 0 Z M 9.796875 0 "/></g></g></g><g fill="#ffffff" fill-opacity="1"><g transform="translate(132.365505, 328.234726)"><g><path d="M 12.1875 0.53125 C 10.414062 0.53125 8.820312 0.34375 7.40625 -0.03125 C 5.988281 -0.414062 4.773438 -0.96875 3.765625 -1.6875 C 2.765625 -2.414062 2 -3.289062 1.46875 -4.3125 C 0.9375 -5.34375 0.671875 -6.507812 0.671875 -7.8125 C 0.671875 -9.082031 0.914062 -10.238281 1.40625 -11.28125 C 1.90625 -12.320312 2.625 -13.21875 3.5625 -13.96875 C 4.507812 -14.726562 5.664062 -15.304688 7.03125 -15.703125 C 8.394531 -16.109375 9.941406 -16.3125 11.671875 -16.3125 C 13.242188 -16.3125 14.660156 -16.078125 15.921875 -15.609375 C 17.191406 -15.140625 18.273438 -14.488281 19.171875 -13.65625 C 20.066406 -12.820312 20.753906 -11.851562 21.234375 -10.75 C 21.710938 -9.65625 21.953125 -8.476562 21.953125 -7.21875 C 21.953125 -7.132812 21.945312 -7.046875 21.9375 -6.953125 C 21.9375 -6.867188 21.9375 -6.785156 21.9375 -6.703125 L 5.671875 -6.703125 C 5.742188 -5.941406 6.066406 -5.28125 6.640625 -4.71875 C 7.210938 -4.15625 7.972656 -3.722656 8.921875 -3.421875 C 9.867188 -3.117188 10.9375 -2.96875 12.125 -2.96875 C 13.34375 -2.96875 14.445312 -3.160156 15.4375 -3.546875 C 16.425781 -3.929688 17.203125 -4.585938 17.765625 -5.515625 C 17.796875 -5.515625 17.828125 -5.507812 17.859375 -5.5 C 17.890625 -5.5 17.914062 -5.5 17.9375 -5.5 L 21.546875 -3.703125 C 20.734375 -2.679688 19.832031 -1.859375 18.84375 -1.234375 C 17.863281 -0.609375 16.816406 -0.160156 15.703125 0.109375 C 14.585938 0.390625 13.414062 0.53125 12.1875 0.53125 Z M 5.734375 -9.65625 L 16.71875 -9.65625 C 16.675781 -10.257812 16.453125 -10.816406 16.046875 -11.328125 C 15.648438 -11.835938 15.070312 -12.242188 14.3125 -12.546875 C 13.5625 -12.859375 12.625 -13.015625 11.5 -13.015625 C 10.414062 -13.015625 9.457031 -12.867188 8.625 -12.578125 C 7.800781 -12.296875 7.140625 -11.90625 6.640625 -11.40625 C 6.140625 -10.90625 5.835938 -10.320312 5.734375 -9.65625 Z M 5.734375 -9.65625 "/></g></g></g><g fill="#ffffff" fill-opacity="1"><g transform="translate(155.155097, 328.234726)"><g><path d="M 8.34375 0.53125 C 6.050781 0.53125 4.296875 0.101562 3.078125 -0.75 C 1.867188 -1.601562 1.265625 -2.796875 1.265625 -4.328125 C 1.265625 -5.222656 1.519531 -5.976562 2.03125 -6.59375 C 2.550781 -7.207031 3.273438 -7.710938 4.203125 -8.109375 C 5.140625 -8.503906 6.234375 -8.800781 7.484375 -9 C 8.742188 -9.207031 10.125 -9.335938 11.625 -9.390625 C 13.132812 -9.453125 14.707031 -9.457031 16.34375 -9.40625 L 16.34375 -9.65625 C 16.34375 -10.21875 16.191406 -10.734375 15.890625 -11.203125 C 15.585938 -11.671875 15.09375 -12.050781 14.40625 -12.34375 C 13.71875 -12.632812 12.789062 -12.78125 11.625 -12.78125 C 10.9375 -12.78125 10.25 -12.695312 9.5625 -12.53125 C 8.882812 -12.375 8.28125 -12.125 7.75 -11.78125 C 7.21875 -11.445312 6.820312 -11.015625 6.5625 -10.484375 L 2.375 -11.921875 C 2.894531 -12.804688 3.578125 -13.578125 4.421875 -14.234375 C 5.265625 -14.898438 6.328125 -15.410156 7.609375 -15.765625 C 8.890625 -16.128906 10.425781 -16.3125 12.21875 -16.3125 C 15.507812 -16.3125 17.9375 -15.664062 19.5 -14.375 C 21.0625 -13.082031 21.84375 -11.070312 21.84375 -8.34375 L 21.84375 -3.984375 C 21.84375 -3.472656 21.925781 -3.101562 22.09375 -2.875 C 22.257812 -2.644531 22.535156 -2.53125 22.921875 -2.53125 C 23.203125 -2.53125 23.476562 -2.5625 23.75 -2.625 C 24.03125 -2.6875 24.222656 -2.742188 24.328125 -2.796875 L 24.328125 -0.296875 C 24.203125 -0.234375 23.96875 -0.132812 23.625 0 C 23.289062 0.132812 22.882812 0.253906 22.40625 0.359375 C 21.925781 0.472656 21.421875 0.53125 20.890625 0.53125 C 19.648438 0.53125 18.703125 0.296875 18.046875 -0.171875 C 17.390625 -0.648438 17.050781 -1.460938 17.03125 -2.609375 C 17.03125 -2.953125 17.0625 -3.363281 17.125 -3.84375 C 17.1875 -4.332031 17.269531 -4.890625 17.375 -5.515625 C 17.132812 -4.390625 16.71875 -3.4375 16.125 -2.65625 C 15.539062 -1.882812 14.832031 -1.265625 14 -0.796875 C 13.175781 -0.328125 12.28125 0.0078125 11.3125 0.21875 C 10.351562 0.425781 9.363281 0.53125 8.34375 0.53125 Z M 10.140625 -2.453125 C 10.972656 -2.453125 11.757812 -2.585938 12.5 -2.859375 C 13.25 -3.128906 13.910156 -3.484375 14.484375 -3.921875 C 15.054688 -4.367188 15.507812 -4.851562 15.84375 -5.375 C 16.175781 -5.90625 16.34375 -6.429688 16.34375 -6.953125 C 16.132812 -6.960938 15.914062 -6.96875 15.6875 -6.96875 C 15.46875 -6.96875 15.25 -6.972656 15.03125 -6.984375 C 13.84375 -6.984375 12.753906 -6.945312 11.765625 -6.875 C 10.773438 -6.8125 9.921875 -6.691406 9.203125 -6.515625 C 8.492188 -6.335938 7.941406 -6.078125 7.546875 -5.734375 C 7.160156 -5.398438 6.96875 -4.960938 6.96875 -4.421875 C 6.96875 -4.097656 7.0625 -3.785156 7.25 -3.484375 C 7.445312 -3.179688 7.78125 -2.929688 8.25 -2.734375 C 8.71875 -2.546875 9.347656 -2.453125 10.140625 -2.453125 Z M 10.140625 -2.453125 "/></g></g></g><g fill="#ffffff" fill-opacity="1"><g transform="translate(180.323399, 328.234726)"><g><path d="M 10.765625 0.53125 C 9.265625 0.53125 7.859375 0.382812 6.546875 0.09375 C 5.242188 -0.1875 4.097656 -0.632812 3.109375 -1.25 C 2.128906 -1.875 1.382812 -2.691406 0.875 -3.703125 L 5.125 -5.15625 C 5.394531 -4.789062 5.753906 -4.441406 6.203125 -4.109375 C 6.648438 -3.773438 7.234375 -3.503906 7.953125 -3.296875 C 8.679688 -3.097656 9.578125 -3 10.640625 -3 C 11.710938 -3 12.566406 -3.054688 13.203125 -3.171875 C 13.835938 -3.285156 14.289062 -3.460938 14.5625 -3.703125 C 14.832031 -3.953125 14.96875 -4.257812 14.96875 -4.625 C 14.96875 -4.945312 14.796875 -5.203125 14.453125 -5.390625 C 14.117188 -5.585938 13.570312 -5.753906 12.8125 -5.890625 C 12.050781 -6.035156 11.03125 -6.179688 9.75 -6.328125 C 9.257812 -6.378906 8.71875 -6.4375 8.125 -6.5 C 7.53125 -6.570312 6.921875 -6.675781 6.296875 -6.8125 C 5.671875 -6.945312 5.066406 -7.125 4.484375 -7.34375 C 3.910156 -7.5625 3.394531 -7.847656 2.9375 -8.203125 C 2.476562 -8.554688 2.113281 -8.992188 1.84375 -9.515625 C 1.570312 -10.035156 1.4375 -10.660156 1.4375 -11.390625 C 1.4375 -12.960938 2.164062 -14.175781 3.625 -15.03125 C 5.082031 -15.882812 7.304688 -16.3125 10.296875 -16.3125 C 11.640625 -16.3125 12.894531 -16.195312 14.0625 -15.96875 C 15.238281 -15.75 16.316406 -15.34375 17.296875 -14.75 C 18.285156 -14.164062 19.171875 -13.320312 19.953125 -12.21875 L 15.578125 -10.921875 C 15.210938 -11.378906 14.804688 -11.753906 14.359375 -12.046875 C 13.910156 -12.335938 13.363281 -12.550781 12.71875 -12.6875 C 12.082031 -12.820312 11.273438 -12.890625 10.296875 -12.890625 C 8.984375 -12.890625 8.046875 -12.738281 7.484375 -12.4375 C 6.929688 -12.144531 6.65625 -11.789062 6.65625 -11.375 C 6.65625 -10.988281 6.84375 -10.703125 7.21875 -10.515625 C 7.601562 -10.328125 8.164062 -10.191406 8.90625 -10.109375 C 9.644531 -10.023438 10.554688 -9.921875 11.640625 -9.796875 C 13.585938 -9.566406 15.203125 -9.269531 16.484375 -8.90625 C 17.773438 -8.539062 18.738281 -8.039062 19.375 -7.40625 C 20.007812 -6.769531 20.328125 -5.914062 20.328125 -4.84375 C 20.328125 -3.0625 19.539062 -1.71875 17.96875 -0.8125 C 16.394531 0.0820312 13.992188 0.53125 10.765625 0.53125 Z M 10.765625 0.53125 "/></g></g></g><g fill="#ffffff" fill-opacity="1"><g transform="translate(201.915962, 328.234726)"><g><path d="M 12.1875 0.53125 C 10.414062 0.53125 8.820312 0.34375 7.40625 -0.03125 C 5.988281 -0.414062 4.773438 -0.96875 3.765625 -1.6875 C 2.765625 -2.414062 2 -3.289062 1.46875 -4.3125 C 0.9375 -5.34375 0.671875 -6.507812 0.671875 -7.8125 C 0.671875 -9.082031 0.914062 -10.238281 1.40625 -11.28125 C 1.90625 -12.320312 2.625 -13.21875 3.5625 -13.96875 C 4.507812 -14.726562 5.664062 -15.304688 7.03125 -15.703125 C 8.394531 -16.109375 9.941406 -16.3125 11.671875 -16.3125 C 13.242188 -16.3125 14.660156 -16.078125 15.921875 -15.609375 C 17.191406 -15.140625 18.273438 -14.488281 19.171875 -13.65625 C 20.066406 -12.820312 20.753906 -11.851562 21.234375 -10.75 C 21.710938 -9.65625 21.953125 -8.476562 21.953125 -7.21875 C 21.953125 -7.132812 21.945312 -7.046875 21.9375 -6.953125 C 21.9375 -6.867188 21.9375 -6.785156 21.9375 -6.703125 L 5.671875 -6.703125 C 5.742188 -5.941406 6.066406 -5.28125 6.640625 -4.71875 C 7.210938 -4.15625 7.972656 -3.722656 8.921875 -3.421875 C 9.867188 -3.117188 10.9375 -2.96875 12.125 -2.96875 C 13.34375 -2.96875 14.445312 -3.160156 15.4375 -3.546875 C 16.425781 -3.929688 17.203125 -4.585938 17.765625 -5.515625 C 17.796875 -5.515625 17.828125 -5.507812 17.859375 -5.5 C 17.890625 -5.5 17.914062 -5.5 17.9375 -5.5 L 21.546875 -3.703125 C 20.734375 -2.679688 19.832031 -1.859375 18.84375 -1.234375 C 17.863281 -0.609375 16.816406 -0.160156 15.703125 0.109375 C 14.585938 0.390625 13.414062 0.53125 12.1875 0.53125 Z M 5.734375 -9.65625 L 16.71875 -9.65625 C 16.675781 -10.257812 16.453125 -10.816406 16.046875 -11.328125 C 15.648438 -11.835938 15.070312 -12.242188 14.3125 -12.546875 C 13.5625 -12.859375 12.625 -13.015625 11.5 -13.015625 C 10.414062 -13.015625 9.457031 -12.867188 8.625 -12.578125 C 7.800781 -12.296875 7.140625 -11.90625 6.640625 -11.40625 C 6.140625 -10.90625 5.835938 -10.320312 5.734375 -9.65625 Z M 5.734375 -9.65625 "/></g></g></g><g fill="#ffffff" fill-opacity="1"><g transform="translate(224.705553, 328.234726)"><g><path d="M 2.71875 0 L 2.71875 -15.75 L 6.625 -15.75 L 7.703125 -11.421875 C 7.910156 -12.128906 8.238281 -12.78125 8.6875 -13.375 C 9.132812 -13.976562 9.664062 -14.5 10.28125 -14.9375 C 10.90625 -15.375 11.582031 -15.710938 12.3125 -15.953125 C 13.039062 -16.191406 13.78125 -16.3125 14.53125 -16.3125 C 15.800781 -16.3125 16.863281 -16.148438 17.71875 -15.828125 C 18.570312 -15.503906 19.253906 -15.054688 19.765625 -14.484375 C 20.285156 -13.921875 20.660156 -13.265625 20.890625 -12.515625 C 21.117188 -11.765625 21.234375 -10.957031 21.234375 -10.09375 C 21.242188 -9.226562 21.171875 -8.34375 21.015625 -7.4375 L 16.84375 -6.96875 C 16.875 -8.175781 16.789062 -9.171875 16.59375 -9.953125 C 16.394531 -10.734375 16.023438 -11.316406 15.484375 -11.703125 C 14.953125 -12.085938 14.1875 -12.28125 13.1875 -12.28125 C 12.382812 -12.28125 11.675781 -12.097656 11.0625 -11.734375 C 10.445312 -11.367188 9.929688 -10.890625 9.515625 -10.296875 C 9.097656 -9.703125 8.78125 -9.0625 8.5625 -8.375 C 8.34375 -7.6875 8.234375 -7.015625 8.234375 -6.359375 L 8.234375 0 Z M 2.71875 0 "/></g></g></g><g fill="#ffffff" fill-opacity="1"><g transform="translate(246.359502, 328.234726)"><g><path d="M 10.765625 0.53125 C 9.265625 0.53125 7.859375 0.382812 6.546875 0.09375 C 5.242188 -0.1875 4.097656 -0.632812 3.109375 -1.25 C 2.128906 -1.875 1.382812 -2.691406 0.875 -3.703125 L 5.125 -5.15625 C 5.394531 -4.789062 5.753906 -4.441406 6.203125 -4.109375 C 6.648438 -3.773438 7.234375 -3.503906 7.953125 -3.296875 C 8.679688 -3.097656 9.578125 -3 10.640625 -3 C 11.710938 -3 12.566406 -3.054688 13.203125 -3.171875 C 13.835938 -3.285156 14.289062 -3.460938 14.5625 -3.703125 C 14.832031 -3.953125 14.96875 -4.257812 14.96875 -4.625 C 14.96875 -4.945312 14.796875 -5.203125 14.453125 -5.390625 C 14.117188 -5.585938 13.570312 -5.753906 12.8125 -5.890625 C 12.050781 -6.035156 11.03125 -6.179688 9.75 -6.328125 C 9.257812 -6.378906 8.71875 -6.4375 8.125 -6.5 C 7.53125 -6.570312 6.921875 -6.675781 6.296875 -6.8125 C 5.671875 -6.945312 5.066406 -7.125 4.484375 -7.34375 C 3.910156 -7.5625 3.394531 -7.847656 2.9375 -8.203125 C 2.476562 -8.554688 2.113281 -8.992188 1.84375 -9.515625 C 1.570312 -10.035156 1.4375 -10.660156 1.4375 -11.390625 C 1.4375 -12.960938 2.164062 -14.175781 3.625 -15.03125 C 5.082031 -15.882812 7.304688 -16.3125 10.296875 -16.3125 C 11.640625 -16.3125 12.894531 -16.195312 14.0625 -15.96875 C 15.238281 -15.75 16.316406 -15.34375 17.296875 -14.75 C 18.285156 -14.164062 19.171875 -13.320312 19.953125 -12.21875 L 15.578125 -10.921875 C 15.210938 -11.378906 14.804688 -11.753906 14.359375 -12.046875 C 13.910156 -12.335938 13.363281 -12.550781 12.71875 -12.6875 C 12.082031 -12.820312 11.273438 -12.890625 10.296875 -12.890625 C 8.984375 -12.890625 8.046875 -12.738281 7.484375 -12.4375 C 6.929688 -12.144531 6.65625 -11.789062 6.65625 -11.375 C 6.65625 -10.988281 6.84375 -10.703125 7.21875 -10.515625 C 7.601562 -10.328125 8.164062 -10.191406 8.90625 -10.109375 C 9.644531 -10.023438 10.554688 -9.921875 11.640625 -9.796875 C 13.585938 -9.566406 15.203125 -9.269531 16.484375 -8.90625 C 17.773438 -8.539062 18.738281 -8.039062 19.375 -7.40625 C 20.007812 -6.769531 20.328125 -5.914062 20.328125 -4.84375 C 20.328125 -3.0625 19.539062 -1.71875 17.96875 -0.8125 C 16.394531 0.0820312 13.992188 0.53125 10.765625 0.53125 Z M 10.765625 0.53125 "/></g></g></g></svg>